<svg id="adress" data-name="Laag 1" xmlns="http://www.w3.org/2000/svg" viewBox="0 0 114.86 86.14"><path class="cls-1" d="M114.86,10v68.2a9,9,0,0,1-9,9H9a8.64,8.64,0,0,1-6.34-2.64A8.64,8.64,0,0,1,0,78.15V10A8.64,8.64,0,0,1,2.64,3.62,8.64,8.64,0,0,1,9,1h96.91a8.64,8.64,0,0,1,6.34,2.64A8.64,8.64,0,0,1,114.86,10Zm-7.18,68.2V10a1.82,1.82,0,0,0-1.79-1.79H9A1.82,1.82,0,0,0,7.18,10v68.2A1.82,1.82,0,0,0,9,79.95H28.71V74.57a1.73,1.73,0,0,1,1.79-1.79H34.1a1.73,1.73,0,0,1,1.79,1.79v5.38H79V74.57a1.73,1.73,0,0,1,1.79-1.79h3.59a1.73,1.73,0,0,1,1.79,1.79v5.38h19.74A1.82,1.82,0,0,0,107.68,78.15ZM56.92,50.65a39.85,39.85,0,0,1,.5,6.59,8.77,8.77,0,0,1-2.08,6,6.51,6.51,0,0,1-5.1,2.38H21.54a6.51,6.51,0,0,1-5.1-2.38,8.77,8.77,0,0,1-2.08-6,39.85,39.85,0,0,1,.5-6.59,26.56,26.56,0,0,1,1.65-5.78,9.85,9.85,0,0,1,3.39-4.37,9.13,9.13,0,0,1,5.44-1.6q0.34,0.22,1.68,1l2.1,1.21q0.76,0.42,2,1a11.79,11.79,0,0,0,2.41.81,11.12,11.12,0,0,0,4.71,0,11.8,11.8,0,0,0,2.41-.81q1.23-.56,2-1l2.1-1.21q1.35-.78,1.68-1a9.13,9.13,0,0,1,5.44,1.6,9.86,9.86,0,0,1,3.39,4.37A26.61,26.61,0,0,1,56.92,50.65Zm-12-31.57a12.27,12.27,0,0,1,3.73,9A12.73,12.73,0,0,1,35.89,40.8,12.73,12.73,0,0,1,23.16,28.07,12.73,12.73,0,0,1,35.89,15.34,12.27,12.27,0,0,1,44.89,19.07Zm55.61,5.24V27.9a1.73,1.73,0,0,1-1.79,1.79H66.4a1.73,1.73,0,0,1-1.79-1.79V24.32a1.73,1.73,0,0,1,1.79-1.79h32.3A1.73,1.73,0,0,1,100.5,24.32Zm0,14.58V42a2,2,0,0,1-2,2H66.63a2,2,0,0,1-2-2V38.9a2,2,0,0,1,2-2H98.48A2,2,0,0,1,100.5,38.9Zm0,14.13v3.59a1.73,1.73,0,0,1-1.79,1.79H66.4a1.73,1.73,0,0,1-1.79-1.79V53a1.73,1.73,0,0,1,1.79-1.79h32.3A1.73,1.73,0,0,1,100.5,53Z" transform="translate(0 -0.98)"/></svg>