<svg xmlns="http://www.w3.org/2000/svg" viewBox="0 0 665.85 910.81"><title>Asset 1</title><g id="Layer_2" data-name="Layer 2"><g id="Capa_1" data-name="Capa 1"><path d="M0,50V860.81a50,50,0,0,0,50,50H433.65V758.7H101.09a15,15,0,0,1,0-30h333.4a60.09,60.09,0,0,1,59.16-50.08H665.84V50a50,50,0,0,0-50-50H50A50,50,0,0,0,0,50ZM392.17,94.06,434.65,246c9.69,34.17,16.62,63.71,26.78,98.34h1.85c10.16-34.63,17.08-64.18,26.32-98.34l42-151.9h54.94L492.82,396H429.57l-94.19-302Zm-156-5.54c36.48,0,66.95,18,85.88,38.32l-30,33.24c-15.24-15.24-32.32-24.93-55.4-24.93-49.86,0-85,41.55-85,109.42,0,68.79,32.32,110.35,83.11,110.35,26.78,0,46.17-11.08,63.25-30l30,32.78c-24.47,28.16-56.33,43.86-94.19,43.86-77.1,0-137.12-55.4-137.12-155.59C96.69,147.16,158.56,88.52,236.13,88.52Zm-135,383.11H564.75a15,15,0,0,1,0,30H101.09a15,15,0,0,1,0-30Zm0,133.08H564.75a15,15,0,0,1,0,30H101.09a15,15,0,0,1,0-30Z"/><path d="M661.14,708.63H493.66a30,30,0,0,0-30,30V910.81L665.85,708.63h-4.7Z"/></g></g></svg>