<svg id="envelope" data-name="Laag 1" xmlns="http://www.w3.org/2000/svg" viewBox="0 0 73.06 73.06"><path id="env_closed" class="cls-1" d="M73.76,68.58c0,3.07-2.92,5.59-6.5,5.59H7.5c-3.57,0-6.5-2.51-6.5-5.59v-38C1,27.51,3.92,25,7.5,25H67.27c3.57,0,6.5,2.51,6.5,5.59v38Zm-6.5-39.11H7.5a1.25,1.25,0,0,0-1.3,1.12c0,4,2.31,7.44,6,9.92Q20.33,46,28.45,51.58c2.15,1.5,6,4.71,8.89,4.71h0.08c2.84,0,6.74-3.21,8.89-4.71Q54.41,46,62.6,40.51c2.64-1.78,6-5.66,6-8.63C68.56,31,68.81,29.47,67.27,29.47Zm1.3,12.29a20.8,20.8,0,0,1-2.8,2.3c-5.81,3.84-11.65,7.75-17.3,11.8-3,2.2-6.82,4.89-11,4.89H37.34c-4.22,0-8-2.69-11-4.89-5.64-4.05-11.49-8-17.3-11.8a20.8,20.8,0,0,1-2.8-2.3V68.58A1.25,1.25,0,0,0,7.5,69.7H67.27a1.25,1.25,0,0,0,1.3-1.12V41.76Z" transform="translate(-1 -1.62)"/><path id="env_opened" class="cls-1" d="M74.06,68.16a6.54,6.54,0,0,1-6.52,6.52h-60A6.54,6.54,0,0,1,1,68.16V30.32a5.21,5.21,0,0,1,1.67-3.83C11,18.74,20.65,12,26.44,7.24c2.85-2.36,6.81-5.63,11-5.63h0.08c4.24,0,8.19,3.26,11,5.63C54,11.69,64.24,18.9,72.39,26.49a5.21,5.21,0,0,1,1.67,3.83V68.16ZM68.84,30.32c-4.08-3.79-3.47-3.47-22.34-18.06-2-1.59-6.08-5.42-8.93-5.42H37.49c-2.85,0-6.89,3.83-8.93,5.42C9.68,26.85,10.3,26.53,6.22,30.32V68.16a1.34,1.34,0,0,0,1.3,1.3h60a1.34,1.34,0,0,0,1.3-1.3V30.32Zm-6.16,10.6a1.29,1.29,0,0,1-.2,1.79C58.41,45.9,49,53.11,48.62,53.44c-2.89,2.37-6.81,5.63-11,5.59H37.49c-4.24,0-8.15-3.22-11-5.59C26,53.07,16.94,46.1,12.95,43a1.26,1.26,0,0,1-.25-1.79l1.51-2.12a1.28,1.28,0,0,1,1.88-.24C18.86,41,22.77,44,28.56,48.46c2,1.55,6.08,5.34,8.93,5.34h0.08c2.85,0,6.89-3.79,8.93-5.34,6-4.61,10-7.67,12.76-9.87a1.3,1.3,0,0,1,1.83.25Z" transform="translate(-1 -1.62)"/></svg>