<svg id="logo" data-name="Laag 1" xmlns="http://www.w3.org/2000/svg" viewBox="0 0 370.73 64.37"><title>logo-2</title><path class="cls-1" d="M41.05,17.45a3.44,3.44,0,0,1,2.86,1.27,4.72,4.72,0,0,1,1,3,4.91,4.91,0,0,1-.07,1A6.49,6.49,0,0,1,43.19,26a11.57,11.57,0,0,1-3.73,2.18L17.59,36.64l17.94,8a7.34,7.34,0,0,1,3,2.26,5.11,5.11,0,0,1,1,3.13,5.37,5.37,0,0,1-.21,1.51q-0.76,3.09-3.52,3.09a8.14,8.14,0,0,1-3.17-.87L4.55,40.36A4,4,0,0,1,2,36.72a5.06,5.06,0,0,1,.14-1,4.57,4.57,0,0,1,1.17-2.5A7.79,7.79,0,0,1,6,31.57L38.43,18.09A7,7,0,0,1,41.05,17.45Z" transform="translate(-2 -2.95)"/><path class="cls-1" d="M74.83,20.74a3.61,3.61,0,0,0,.14-1.1,2.68,2.68,0,0,0-.59-1.79,9,9,0,0,0-1.83-1.52A8.22,8.22,0,0,1,71.07,15a1.39,1.39,0,0,1-.24-1.31,1.71,1.71,0,0,1,1-1.31A7.31,7.31,0,0,1,74.48,12h19.6a4.34,4.34,0,0,1,2.24.48,1.43,1.43,0,0,1,.79,1.24,2.69,2.69,0,0,1-.21.9,2.72,2.72,0,0,1-.59.86,3.25,3.25,0,0,1-.69.55,2.09,2.09,0,0,0-.45.31,7.1,7.1,0,0,0-1.79,1.38,6.17,6.17,0,0,0-1.17,2.35L85.45,44q-2.07,7.31-7,10.87t-12.9,3.55a23.22,23.22,0,0,1-9-1.55A12.55,12.55,0,0,1,51,52.69,9.68,9.68,0,0,1,49.09,47a10.75,10.75,0,0,1,.41-3,8.5,8.5,0,0,1,3.07-4.69,8.05,8.05,0,0,1,4.86-1.59,6,6,0,0,1,4.76,1.86,6.9,6.9,0,0,1,1.66,4.76,10.51,10.51,0,0,1-.41,2.9,7,7,0,0,1-3.1,4.28,4.71,4.71,0,0,0,2.55.69,3.18,3.18,0,0,0,2.55-1.45,12.49,12.49,0,0,0,1.86-4.07Z" transform="translate(-2 -2.95)"/><path class="cls-1" d="M131.48,25.29a12.43,12.43,0,0,1,4.45,9.94,22.08,22.08,0,0,1-.55,4.62,23.21,23.21,0,0,1-4.9,9.9,24.22,24.22,0,0,1-8.8,6.56,27.49,27.49,0,0,1-11.28,2.31q-9.59,0-14.18-3.83a12.59,12.59,0,0,1-4.59-10.18,23.23,23.23,0,0,1,.55-4.76,22.12,22.12,0,0,1,5-9.56,25.27,25.27,0,0,1,9-6.49,28.47,28.47,0,0,1,11.42-2.31Q127,21.5,131.48,25.29Zm-17.11,4.93q-1.62,2.59-3.83,9.76t-2.21,10.07a3.08,3.08,0,0,0,.48,2,1.71,1.71,0,0,0,1.31.52q1.45,0.14,3-2.48T117,39.92q2.14-6.69,2.14-9.73a3.29,3.29,0,0,0-.45-2,1.55,1.55,0,0,0-1.28-.55Q116,27.64,114.37,30.23Z" transform="translate(-2 -2.95)"/><path class="cls-1" d="M181.43,48.48a1.91,1.91,0,0,0-.14.83,1.11,1.11,0,0,0,.24.76,0.82,0.82,0,0,0,.66.28,1.76,1.76,0,0,0,1.41-.72,1.84,1.84,0,0,1,.79-0.72,0.63,0.63,0,0,1,.55.45,2.54,2.54,0,0,1,.21,1.07,6.18,6.18,0,0,1-1.31,3.9,9.92,9.92,0,0,1-4,3.1,15.35,15.35,0,0,1-6.38,1.21,11.45,11.45,0,0,1-7.25-2.1,7,7,0,0,1-2.76-5.62,15.93,15.93,0,0,1,1.24-5.73l3.79-9.94a4.28,4.28,0,0,0,.35-1.45,1.79,1.79,0,0,0-.59-1.41,2.06,2.06,0,0,0-1.41-.52,4.05,4.05,0,0,0-2.9,1.41,8.31,8.31,0,0,0-2,3.48l-4.28,14.08a4.24,4.24,0,0,0-.28,1.45,2.38,2.38,0,0,0,.35,1.35,5.68,5.68,0,0,0,1,1.07,3.33,3.33,0,0,1,.69.76,1,1,0,0,1,.07.83,2.06,2.06,0,0,1-1.31,1.31,9.36,9.36,0,0,1-3.24.41H139.13a4.43,4.43,0,0,1-2.59-.59,1.42,1.42,0,0,1-.59-1.55,2.75,2.75,0,0,1,1.45-1.45,6.29,6.29,0,0,0,1.73-1.31,6.22,6.22,0,0,0,1.17-2.42l6.14-19.94a2.69,2.69,0,0,0,.14-1,1.92,1.92,0,0,0-.31-1.17,8,8,0,0,0-1-1,4.69,4.69,0,0,1-1-1,1.27,1.27,0,0,1-.07-1.1q0.41-1.59,4.35-2.79a27.84,27.84,0,0,1,8.21-1.21,7.6,7.6,0,0,1,5.45,1.9A6.35,6.35,0,0,1,164,28.67a16.44,16.44,0,0,1,6-5.62,15.49,15.49,0,0,1,6.9-1.55,9.26,9.26,0,0,1,6.8,2.55,8.9,8.9,0,0,1,2.59,6.62,13.24,13.24,0,0,1-.69,4.21Z" transform="translate(-2 -2.95)"/><path class="cls-1" d="M227.75,24.43a9.78,9.78,0,0,1,4.76,8.94,19.09,19.09,0,0,1-.83,5.17l-2.83,9.52a2.88,2.88,0,0,0-.07.69,0.9,0.9,0,0,0,.9,1.1,1.76,1.76,0,0,0,1.41-.72,1.84,1.84,0,0,1,.79-0.72,0.7,0.7,0,0,1,.59.48,2.44,2.44,0,0,1,.24,1.1,5.88,5.88,0,0,1-1.41,3.79,11.22,11.22,0,0,1-4,3.17,12,12,0,0,1-5.45,1.24,13.29,13.29,0,0,1-6.14-1.31A7,7,0,0,1,212.22,53a14.35,14.35,0,0,1-4.9,3.83,14,14,0,0,1-6.07,1.35,12.24,12.24,0,0,1-6.14-1.41,9.25,9.25,0,0,1-3.69-3.66,9.83,9.83,0,0,1-1.21-4.73,10.87,10.87,0,0,1,.21-2.14,11.2,11.2,0,0,1,4.8-7.18,15.71,15.71,0,0,1,8.8-2.42,36.18,36.18,0,0,1,11.25,1.79L217,33.92a16.48,16.48,0,0,0,.9-4.48,3.17,3.17,0,0,0-1.1-2.48,5,5,0,0,0-3.17-.83A6.44,6.44,0,0,1,214,28.4a5.93,5.93,0,0,1-1.93,4.42,7.64,7.64,0,0,1-5.52,1.86,8.37,8.37,0,0,1-5.28-1.48,4.51,4.51,0,0,1-1.9-3.69q0-3.45,3.86-5.73t11.8-2.28Q223,21.5,227.75,24.43ZM208,43.89a5,5,0,0,0-1.21,3.21,2.91,2.91,0,0,0,.52,1.79,1.74,1.74,0,0,0,1.48.69,3.59,3.59,0,0,0,2-.72,4.08,4.08,0,0,0,1.55-2.17l1.45-4.07a15.2,15.2,0,0,0-2.62-.21A3.86,3.86,0,0,0,208,43.89Z" transform="translate(-2 -2.95)"/><path class="cls-1" d="M271.33,21.91a16,16,0,0,1,6.42,2.9A5.41,5.41,0,0,1,280,29,4.8,4.8,0,0,1,278.1,33a8.24,8.24,0,0,1-5.28,1.52A9.66,9.66,0,0,1,267,32.75a5.18,5.18,0,0,1-2.38-4.35,5.41,5.41,0,0,1,.28-1.73,8.39,8.39,0,0,0-2.21-.34,4.74,4.74,0,0,0-2.86.83,2.57,2.57,0,0,0-1.07,2.35,3.62,3.62,0,0,0,1.79,3,42.47,42.47,0,0,0,5.8,3.1q3.45,1.52,5.69,2.79a13.21,13.21,0,0,1,3.79,3.21,7.06,7.06,0,0,1,1.55,4.55,14.27,14.27,0,0,1-.28,2.07Q276,52.89,271,55.58t-13.25,2.69q-9.25,0-14.66-2.48T237.63,49a5.55,5.55,0,0,1,1.79-4.48A7.13,7.13,0,0,1,244.18,43a8.67,8.67,0,0,1,5.9,2.14,6.92,6.92,0,0,1,2.45,5.45,8.84,8.84,0,0,1-.21,1.86,13.09,13.09,0,0,0,3.17.41,4.51,4.51,0,0,0,3-1,3.29,3.29,0,0,0,1.17-2.69,3.55,3.55,0,0,0-1.59-2.73,30.71,30.71,0,0,0-4.83-2.73A45.09,45.09,0,0,1,248.12,41a12.58,12.58,0,0,1-3.42-3.21,7.5,7.5,0,0,1-1.41-4.55,10.49,10.49,0,0,1,4.73-9q4.73-3.35,13.42-3.35A41.56,41.56,0,0,1,271.33,21.91Z" transform="translate(-2 -2.95)"/><path class="cls-1" d="M300.76,64.31A7.93,7.93,0,0,1,299,66.6a3,3,0,0,1-1.86.71,2.93,2.93,0,0,1-2.28-.91,3.24,3.24,0,0,1-.83-2.26,4.51,4.51,0,0,1,.62-2.22L326.5,6q1.66-3,3.79-3a2.68,2.68,0,0,1,2.17,1,3.48,3.48,0,0,1,.79,2.3,4.65,4.65,0,0,1-.62,2.3Z" transform="translate(-2 -2.95)"/><path class="cls-1" d="M372.73,35.37a5.14,5.14,0,0,1-.14,1,4.57,4.57,0,0,1-1.17,2.5,7.78,7.78,0,0,1-2.69,1.63L336.29,54a7,7,0,0,1-2.62.63,3.43,3.43,0,0,1-2.86-1.27,4.72,4.72,0,0,1-1-3,4.86,4.86,0,0,1,.07-1,6.48,6.48,0,0,1,1.66-3.29,11.56,11.56,0,0,1,3.73-2.18l21.87-8.48-17.94-8a7.32,7.32,0,0,1-3-2.26,5.1,5.1,0,0,1-1-3.13,5.39,5.39,0,0,1,.21-1.51q0.76-3.09,3.52-3.09a8.17,8.17,0,0,1,3.17.87l28.15,13.4A4,4,0,0,1,372.73,35.37Z" transform="translate(-2 -2.95)"/></svg>