<svg id="sf-logo" data-name="Subtitle Frame logo" xmlns="http://www.w3.org/2000/svg" viewBox="0 0 107.46 14.88"><title>logo-subtitleframe</title><path class="sf-logo" d="M5.43,18.78a4.69,4.69,0,0,1-.88-3.18V14.17H7.42V16q0,1.09.7,1.09a0.61,0.61,0,0,0,.54-0.23,1.46,1.46,0,0,0,.15-0.77,3.5,3.5,0,0,0-.17-1.18,2.58,2.58,0,0,0-.43-0.78q-0.26-.31-0.94-1L6,11.88A4.34,4.34,0,0,1,4.54,8.71,4.19,4.19,0,0,1,5.4,5.87a3.16,3.16,0,0,1,2.51-1,3.49,3.49,0,0,1,2.84,1,5.08,5.08,0,0,1,.87,3.27h-3l0-1a0.64,0.64,0,0,0-.16-0.46A0.59,0.59,0,0,0,8,7.57a0.66,0.66,0,0,0-.51.19,0.73,0.73,0,0,0-.17.51,2.12,2.12,0,0,0,.82,1.48l1.7,1.63a9.75,9.75,0,0,1,1,1.1,4.3,4.3,0,0,1,.63,1.22,5.25,5.25,0,0,1,.24,1.67,5.64,5.64,0,0,1-.79,3.27A3,3,0,0,1,8.3,19.76,3.68,3.68,0,0,1,5.43,18.78Z" transform="translate(-4.54 -4.89)"/><path class="sf-logo" d="M14.23,18.74a4.54,4.54,0,0,1-.88-3V5h2.84V15.6a3.43,3.43,0,0,0,.14,1.09,0.63,0.63,0,0,0,1.16,0,3.42,3.42,0,0,0,.14-1.1V5h2.84V15.72a4.54,4.54,0,0,1-.88,3,3.34,3.34,0,0,1-2.68,1A3.34,3.34,0,0,1,14.23,18.74Z" transform="translate(-4.54 -4.89)"/><path class="sf-logo" d="M22.43,5h4a3,3,0,0,1,2.32.78,3.7,3.7,0,0,1,.72,2.55V9q0,2.09-1.5,2.5a1.84,1.84,0,0,1,1.29,1.1,5.87,5.87,0,0,1,.37,2.29,7.15,7.15,0,0,1-.7,3.53,2.66,2.66,0,0,1-2.52,1.2h-4V5Zm3.45,5.49a0.51,0.51,0,0,0,.51-0.28,1.85,1.85,0,0,0,.14-0.79V8a0.6,0.6,0,0,0-.63-0.71H25.28v3.25h0.6ZM26.71,16V14.15a2.05,2.05,0,0,0-.2-1,0.73,0.73,0,0,0-.69-0.34H25.28V17l0.29,0A1,1,0,0,0,26.71,16Z" transform="translate(-4.54 -4.89)"/><path class="sf-logo" d="M32.68,19.63V7.83H30.94V5h6.39V7.83H35.6v11.8H32.68Z" transform="translate(-4.54 -4.89)"/><path class="sf-logo" d="M38.87,19.63V5h2.82v14.6H38.87Z" transform="translate(-4.54 -4.89)"/><path class="sf-logo" d="M45,19.63V7.83H43.24V5h6.39V7.83H47.89v11.8H45Z" transform="translate(-4.54 -4.89)"/><path class="sf-logo" d="M51.29,19.63V5h2.92V17.15h3v2.48H51.29Z" transform="translate(-4.54 -4.89)"/><path class="sf-logo" d="M58.89,19.63V5h5.85V7.85H61.87v2.84h2.75v2.75H61.87v3.35h3.06v2.84h-6Z" transform="translate(-4.54 -4.89)"/><path class="sf-logo" d="M66.75,19.63V5h5.85V7.86H69.69v2.33h2.75V13H69.69v6.63H66.75Z" transform="translate(-4.54 -4.89)"/><path class="sf-logo" d="M74.38,5h4.49a2.54,2.54,0,0,1,1.66.48,2.41,2.41,0,0,1,.79,1.36,10.13,10.13,0,0,1,.2,2.24A4.71,4.71,0,0,1,81.2,11a1.81,1.81,0,0,1-1.12,1,1.35,1.35,0,0,1,1,.66,2.91,2.91,0,0,1,.3,1.43l0,5.52H78.44V13.92a0.94,0.94,0,0,0-.24-0.78A1.59,1.59,0,0,0,77.34,13v6.66h-3V5Zm3.67,5.41q0.61,0,.61-1.33a5.39,5.39,0,0,0-.05-0.87,0.64,0.64,0,0,0-.19-0.4A0.61,0.61,0,0,0,78,7.73H77.35v2.7h0.7Z" transform="translate(-4.54 -4.89)"/><path class="sf-logo" d="M82.95,19.63L84.36,5H89.3l1.39,14.6H87.93l-0.2-2.36H86l-0.17,2.36H82.95Zm3.23-4.69H87.5L86.86,7.51H86.72Z" transform="translate(-4.54 -4.89)"/><path class="sf-logo" d="M92.43,19.63V5h4.45l1.22,8.91L99.33,5h4.49v14.6h-2.67V9.1L99.47,19.63H96.85L95.07,9.1V19.63H92.43Z" transform="translate(-4.54 -4.89)"/><path class="sf-logo" d="M106,19.63V5h5.85V7.85h-2.87v2.84h2.75v2.75h-2.75v3.35H112v2.84h-6Z" transform="translate(-4.54 -4.89)"/></svg>