<svg id="logo" data-name="logo" xmlns="http://www.w3.org/2000/svg" viewBox="0 0 354.73 56.03"><path class="cls-1" d="M53,39.64a3.67,3.67,0,0,1,2.86,1.1,3.78,3.78,0,0,1,1,2.62,3.73,3.73,0,0,1-.07.83,5.43,5.43,0,0,1-1.66,2.86A12,12,0,0,1,51.4,49L29.53,56.33l17.94,7a7.34,7.34,0,0,1,3,2,4.15,4.15,0,0,1,.83,4A3.35,3.35,0,0,1,47.81,72a9.11,9.11,0,0,1-3.17-.76L16.49,59.58q-2.55-1.1-2.55-3.17a3.87,3.87,0,0,1,.14-0.9,3.79,3.79,0,0,1,1.17-2.17,8.06,8.06,0,0,1,2.69-1.41L50.37,40.19A7.88,7.88,0,0,1,53,39.64Z" transform="translate(-13.93 -27.01)"/><path class="cls-1" d="M81.83,40.74a3.61,3.61,0,0,0,.14-1.1,2.68,2.68,0,0,0-.59-1.79,9,9,0,0,0-1.83-1.52A8.22,8.22,0,0,1,78.07,35a1.39,1.39,0,0,1-.24-1.31,1.71,1.71,0,0,1,1-1.31A7.31,7.31,0,0,1,81.48,32h19.6a4.34,4.34,0,0,1,2.24.48,1.43,1.43,0,0,1,.79,1.24,2.69,2.69,0,0,1-.21.9,2.72,2.72,0,0,1-.59.86,3.25,3.25,0,0,1-.69.55,2.09,2.09,0,0,0-.45.31,7.1,7.1,0,0,0-1.79,1.38,6.17,6.17,0,0,0-1.17,2.35L92.45,64q-2.07,7.31-7,10.87t-12.9,3.55a23.22,23.22,0,0,1-9-1.55A12.55,12.55,0,0,1,58,72.69,9.68,9.68,0,0,1,56.09,67a10.75,10.75,0,0,1,.41-3,8.5,8.5,0,0,1,3.07-4.69,8.05,8.05,0,0,1,4.86-1.59,6,6,0,0,1,4.76,1.86,6.9,6.9,0,0,1,1.66,4.76,10.51,10.51,0,0,1-.41,2.9,7,7,0,0,1-3.1,4.28,4.71,4.71,0,0,0,2.55.69,3.18,3.18,0,0,0,2.55-1.45,12.49,12.49,0,0,0,1.86-4.07Z" transform="translate(-13.93 -27.01)"/><path class="cls-1" d="M137.48,45.29a12.43,12.43,0,0,1,4.45,9.94,22.08,22.08,0,0,1-.55,4.62,23.21,23.21,0,0,1-4.9,9.9,24.22,24.22,0,0,1-8.8,6.56,27.49,27.49,0,0,1-11.28,2.31q-9.59,0-14.18-3.83a12.59,12.59,0,0,1-4.59-10.18,23.23,23.23,0,0,1,.55-4.76,22.12,22.12,0,0,1,5-9.56,25.27,25.27,0,0,1,9-6.49,28.47,28.47,0,0,1,11.42-2.31Q133,41.5,137.48,45.29Zm-17.11,4.93q-1.62,2.59-3.83,9.76t-2.21,10.07a3.08,3.08,0,0,0,.48,2,1.71,1.71,0,0,0,1.31.52q1.45,0.14,3-2.48T123,59.92q2.14-6.69,2.14-9.73a3.29,3.29,0,0,0-.45-2,1.55,1.55,0,0,0-1.28-.55Q122,47.64,120.36,50.23Z" transform="translate(-13.93 -27.01)"/><path class="cls-1" d="M184.91,68.48a1.91,1.91,0,0,0-.14.83,1.11,1.11,0,0,0,.24.76,0.82,0.82,0,0,0,.66.28,1.76,1.76,0,0,0,1.41-.72,1.84,1.84,0,0,1,.79-0.72,0.63,0.63,0,0,1,.55.45,2.54,2.54,0,0,1,.21,1.07,6.18,6.18,0,0,1-1.31,3.9,9.92,9.92,0,0,1-4,3.1,15.35,15.35,0,0,1-6.38,1.21,11.45,11.45,0,0,1-7.25-2.1,7,7,0,0,1-2.76-5.62,15.93,15.93,0,0,1,1.24-5.73l3.79-9.94a4.28,4.28,0,0,0,.35-1.45,1.79,1.79,0,0,0-.59-1.41,2.06,2.06,0,0,0-1.41-.52,4.05,4.05,0,0,0-2.9,1.41,8.31,8.31,0,0,0-2,3.48l-4.28,14.08a4.24,4.24,0,0,0-.28,1.45,2.38,2.38,0,0,0,.35,1.35,5.68,5.68,0,0,0,1,1.07,3.33,3.33,0,0,1,.69.76,1,1,0,0,1,.07.83,2.06,2.06,0,0,1-1.31,1.31,9.36,9.36,0,0,1-3.24.41H142.62a4.43,4.43,0,0,1-2.59-.59,1.42,1.42,0,0,1-.59-1.55,2.75,2.75,0,0,1,1.45-1.45,6.29,6.29,0,0,0,1.73-1.31,6.22,6.22,0,0,0,1.17-2.42l6.14-19.94a2.69,2.69,0,0,0,.14-1,1.92,1.92,0,0,0-.31-1.17,8,8,0,0,0-1-1,4.69,4.69,0,0,1-1-1,1.27,1.27,0,0,1-.07-1.1q0.41-1.59,4.35-2.79a27.84,27.84,0,0,1,8.21-1.21,7.6,7.6,0,0,1,5.45,1.9,6.35,6.35,0,0,1,1.79,5.28,16.44,16.44,0,0,1,6-5.62,15.49,15.49,0,0,1,6.9-1.55,9.26,9.26,0,0,1,6.8,2.55,8.9,8.9,0,0,1,2.59,6.62,13.24,13.24,0,0,1-.69,4.21Z" transform="translate(-13.93 -27.01)"/><path class="cls-1" d="M228.94,44.43a9.78,9.78,0,0,1,4.76,8.94,19.09,19.09,0,0,1-.83,5.17L230,68.06a2.88,2.88,0,0,0-.07.69,0.9,0.9,0,0,0,.9,1.1,1.76,1.76,0,0,0,1.41-.72,1.84,1.84,0,0,1,.79-0.72,0.7,0.7,0,0,1,.59.48,2.44,2.44,0,0,1,.24,1.1,5.88,5.88,0,0,1-1.41,3.79,11.22,11.22,0,0,1-4,3.17,12,12,0,0,1-5.45,1.24,13.29,13.29,0,0,1-6.14-1.31A7,7,0,0,1,213.41,73a14.35,14.35,0,0,1-4.9,3.83,14,14,0,0,1-6.07,1.35,12.24,12.24,0,0,1-6.14-1.41,9.25,9.25,0,0,1-3.69-3.66,9.83,9.83,0,0,1-1.21-4.73,10.87,10.87,0,0,1,.21-2.14,11.2,11.2,0,0,1,4.8-7.18,15.71,15.71,0,0,1,8.8-2.42,36.18,36.18,0,0,1,11.25,1.79l1.73-4.55a16.48,16.48,0,0,0,.9-4.48A3.17,3.17,0,0,0,218,47a5,5,0,0,0-3.17-.83,6.44,6.44,0,0,1,.41,2.28,5.93,5.93,0,0,1-1.93,4.42,7.64,7.64,0,0,1-5.52,1.86,8.37,8.37,0,0,1-5.28-1.48,4.51,4.51,0,0,1-1.9-3.69q0-3.45,3.86-5.73t11.8-2.28Q224.17,41.5,228.94,44.43Zm-19.7,19.46A5,5,0,0,0,208,67.1a2.91,2.91,0,0,0,.52,1.79,1.74,1.74,0,0,0,1.48.69,3.59,3.59,0,0,0,2-.72,4.08,4.08,0,0,0,1.55-2.17L215,62.61a15.2,15.2,0,0,0-2.62-.21A3.86,3.86,0,0,0,209.24,63.89Z" transform="translate(-13.93 -27.01)"/><path class="cls-1" d="M269.33,41.91a16,16,0,0,1,6.42,2.9A5.41,5.41,0,0,1,278,49,4.8,4.8,0,0,1,276.1,53a8.24,8.24,0,0,1-5.28,1.52A9.66,9.66,0,0,1,265,52.75a5.18,5.18,0,0,1-2.38-4.35,5.41,5.41,0,0,1,.28-1.73,8.39,8.39,0,0,0-2.21-.34,4.74,4.74,0,0,0-2.86.83,2.57,2.57,0,0,0-1.07,2.35,3.62,3.62,0,0,0,1.79,3,42.47,42.47,0,0,0,5.8,3.1q3.45,1.52,5.69,2.79a13.21,13.21,0,0,1,3.79,3.21,7.06,7.06,0,0,1,1.55,4.55,14.27,14.27,0,0,1-.28,2.07Q274,72.89,269,75.58t-13.25,2.69q-9.25,0-14.66-2.48T235.63,69a5.55,5.55,0,0,1,1.79-4.48A7.13,7.13,0,0,1,242.18,63a8.67,8.67,0,0,1,5.9,2.14,6.92,6.92,0,0,1,2.45,5.45,8.84,8.84,0,0,1-.21,1.86,13.09,13.09,0,0,0,3.17.41,4.51,4.51,0,0,0,3-1,3.29,3.29,0,0,0,1.17-2.69,3.55,3.55,0,0,0-1.59-2.73,30.71,30.71,0,0,0-4.83-2.73A45.09,45.09,0,0,1,246.12,61a12.58,12.58,0,0,1-3.42-3.21,7.5,7.5,0,0,1-1.41-4.55,10.49,10.49,0,0,1,4.73-9q4.73-3.35,13.42-3.35A41.56,41.56,0,0,1,269.33,41.91Z" transform="translate(-13.93 -27.01)"/><path class="cls-1" d="M296.69,80.42a7.15,7.15,0,0,1-1.79,2A3.23,3.23,0,0,1,293,83a3.16,3.16,0,0,1-2.28-.79,2.62,2.62,0,0,1-.83-2,3.55,3.55,0,0,1,.62-1.93l31.88-48.71Q324.08,27,326.22,27a2.87,2.87,0,0,1,2.17.83,2.79,2.79,0,0,1,.79,2,3.65,3.65,0,0,1-.62,2Z" transform="translate(-13.93 -27.01)"/><path class="cls-1" d="M368.66,55.23a3.93,3.93,0,0,1-.14.9,3.79,3.79,0,0,1-1.17,2.17,8.05,8.05,0,0,1-2.69,1.41L332.23,71.44a7.86,7.86,0,0,1-2.62.55,3.67,3.67,0,0,1-2.86-1.1,3.77,3.77,0,0,1-1-2.62,3.7,3.7,0,0,1,.07-0.83,5.42,5.42,0,0,1,1.66-2.86,12,12,0,0,1,3.73-1.9l21.87-7.38-17.94-7a7.32,7.32,0,0,1-3-2,4.08,4.08,0,0,1-1-2.73,4.13,4.13,0,0,1,.21-1.31,3.35,3.35,0,0,1,3.52-2.69,9.14,9.14,0,0,1,3.17.76l28.15,11.66Q368.66,53.16,368.66,55.23Z" transform="translate(-13.93 -27.01)"/></svg>