<svg xmlns="http://www.w3.org/2000/svg" xmlns:xlink="http://www.w3.org/1999/xlink" version="1.1" x="0px" y="0px" viewBox="0 0 100 125" enable-background="new 0 0 100 100" xml:space="preserve"><path d="M29.466,27.241h12c0.829,0,1.5-0.672,1.5-1.5c0-0.829-0.671-1.5-1.5-1.5h-12c-0.828,0-1.5,0.671-1.5,1.5  C27.966,26.569,28.638,27.241,29.466,27.241z"/><path d="M52.966,35.741c0-0.829-0.671-1.5-1.5-1.5H29.468c-0.828,0-1.5,0.671-1.5,1.5c0,0.828,0.672,1.5,1.5,1.5h21.998  C52.295,37.241,52.966,36.569,52.966,35.741z"/><path d="M85.513,63.944c-0.043-0.549-0.494-1.167-1.004-1.375c0,0-3.34-1.363-4.281-3.596c-0.936-2.241,0.441-5.575,0.441-5.575  c0.209-0.509,0.086-1.265-0.275-1.68l-3.702-3.671c-0.277-0.235-0.702-0.365-1.104-0.365c-0.041,0-0.08,0.008-0.12,0.011  l-0.001-17.952c0-2.2-1.311-5.233-2.912-6.741L61.379,12.482c-1.603-1.508-4.713-2.741-6.913-2.741h-36c-2.2,0-4,1.8-4,4v66  c0,2.2,1.8,4,4,4h27.171l1.506,1.495c0.277,0.234,0.702,0.365,1.105,0.365c0.206,0,0.407-0.034,0.579-0.106  c0,0,1.88-0.792,3.766-0.792c0.621,0,1.242,0.086,1.798,0.314c2.244,0.916,3.632,4.244,3.632,4.244  c0.212,0.508,0.834,0.956,1.382,0.997l5.211-0.022c0.549-0.043,1.167-0.495,1.375-1.004c0,0,1.362-3.339,3.598-4.278  c0.568-0.237,1.207-0.326,1.844-0.326c1.871,0,3.727,0.765,3.727,0.765c0.168,0.069,0.363,0.102,0.563,0.102  c0.407,0,0.839-0.135,1.116-0.377l3.669-3.699c0.355-0.42,0.473-1.179,0.26-1.686c0,0-1.394-3.32-0.477-5.563  c0.916-2.245,4.247-3.633,4.247-3.633c0.508-0.212,0.956-0.834,0.997-1.382L85.513,63.944z M69.127,26.641  c0.148,0.141,0.306,0.352,0.458,0.601H59.466c-0.687-0.001-1.305-0.278-1.765-0.735c-0.457-0.46-0.734-1.078-0.735-1.765v-9.247  c0.407,0.202,0.765,0.421,0.986,0.629L69.127,26.641z M19.466,14.741h34.5v10c0.006,3.035,2.465,5.494,5.5,5.5h11l0.001,18.281  c-0.354-0.048-0.703-0.121-1.026-0.254c-2.246-0.914-3.632-4.245-3.632-4.245c-0.211-0.508-0.832-0.957-1.381-0.997l-5.212,0.023  c-0.548,0.044-1.167,0.496-1.374,1.005c0,0-1.36,3.341-3.599,4.274c-0.57,0.239-1.212,0.328-1.851,0.328  c-1.87,0-3.721-0.764-3.721-0.764c-0.168-0.069-0.363-0.103-0.564-0.103c-0.407,0-0.837,0.135-1.115,0.377l-3.673,3.701  c-0.355,0.42-0.472,1.179-0.258,1.686c0,0,1.398,3.318,0.481,5.563c-0.918,2.247-4.247,3.634-4.247,3.634  c-0.507,0.212-0.956,0.834-0.996,1.382l0.023,5.213c0.044,0.549,0.496,1.166,1.006,1.374c0,0,3.335,1.356,4.274,3.594  c0.589,1.411,0.263,3.256-0.06,4.428H19.466V14.741z M76.182,71.23l-0.928-0.928c-0.293-0.293-0.769-0.293-1.061,0  c-0.293,0.293-0.293,0.768,0,1.061l1.327,1.327c-0.51,1.455-0.615,2.954-0.507,4.313l-4.416-4.415c-0.293-0.293-0.768-0.293-1.061,0  s-0.293,0.768,0,1.061l5.841,5.839l-0.563,0.569c-0.963-0.232-2.145-0.43-3.383-0.43c-0.239,0-0.472,0.017-0.705,0.031l-1.843-1.843  c-0.293-0.293-0.768-0.293-1.061,0s-0.293,0.768,0,1.061l1.067,1.067c-0.426,0.108-0.843,0.235-1.239,0.4  c-2.519,1.058-4.22,3.202-5.235,4.901l-0.85,0.003c-1.029-1.693-2.749-3.825-5.276-4.856c-1.112-0.457-2.356-0.689-3.697-0.689  c-1.271,0-2.484,0.211-3.468,0.456l-0.613-0.609c0.467-1.924,0.756-4.646-0.298-7.172c-1.059-2.521-3.201-4.221-4.9-5.235  l-0.004-0.848c1.694-1.031,3.827-2.752,4.862-5.286c1.033-2.53,0.72-5.249,0.235-7.168l0.607-0.612  c0.962,0.232,2.141,0.429,3.378,0.429c1.376,0,2.649-0.241,3.775-0.714c2.527-1.054,4.232-3.2,5.249-4.903l0.847-0.004  c1.029,1.696,2.749,3.829,5.278,4.857c1.112,0.457,2.355,0.688,3.695,0.688c1.274,0,2.489-0.211,3.474-0.456l0.612,0.606  c-0.47,1.927-0.76,4.65,0.298,7.184c1.059,2.513,3.201,4.212,4.9,5.227l0.004,0.849C79.075,67.873,77.311,69.264,76.182,71.23z"/><path d="M65.949,61.369c-1.202-0.919-2.618-1.363-4.024-1.363c-1.995,0-3.97,0.896-5.277,2.604c-2.224,2.911-1.669,7.073,1.241,9.3  c1.203,0.92,2.618,1.365,4.024,1.365c1.995,0,3.969-0.897,5.276-2.604C69.412,67.762,68.857,63.596,65.949,61.369z M64.809,68.845  c-0.696,0.908-1.752,1.43-2.896,1.43c-0.801,0-1.563-0.259-2.201-0.748c-1.592-1.218-1.896-3.504-0.683-5.093  c0.695-0.907,1.751-1.428,2.896-1.428c0.802,0,1.563,0.258,2.201,0.745C65.718,64.97,66.022,67.256,64.809,68.845z"/><path d="M57.787,58.58c0.737-0.377,1.03-1.28,0.653-2.018c-0.376-0.738-1.28-1.031-2.018-0.654  c-1.552,0.791-2.958,1.935-4.084,3.406c-0.428,0.56-0.801,1.146-1.116,1.754c-0.382,0.735-0.096,1.641,0.64,2.022  s1.641,0.096,2.022-0.64c0.235-0.453,0.514-0.892,0.836-1.313C55.571,60.027,56.621,59.176,57.787,58.58z"/></svg>
