<svg xmlns="http://www.w3.org/2000/svg" viewBox="0 0 543.94 140.92">
    <defs>
        <style>.cls-1,.cls-2{fill:#fff;}.cls-2{fill-rule:evenodd;}</style>
    </defs>
    <title>Asset 2</title>
    <g opacity="0.406919643">
        <g fill="#ffffff">
            <path class="cls-1" d="M253.12,67.91H222.86a1.42,1.42,0,0,0-1.41,1.41v14.8a1.42,1.42,0,0,0,1.41,1.42h11.81v18.39s-2.65.9-10,.9C216,104.83,204,101.67,204,75.1S216.54,45,228.34,45c10.22,0,14.63,1.8,17.43,2.67a1.42,1.42,0,0,0,1.69-1.39L250.84,32a1.32,1.32,0,0,0-.54-1.1c-1.14-.81-8.08-4.7-25.62-4.7-20.21,0-40.93,8.6-40.93,49.92s23.73,47.48,43.73,47.48c16.56,0,26.6-7.08,26.6-7.08a1.22,1.22,0,0,0,.46-1.07V69.32A1.41,1.41,0,0,0,253.12,67.91Z" />
            <path class="cls-1" d="M409.11,31.17a1.41,1.41,0,0,0-1.4-1.42h-17a1.42,1.42,0,0,0-1.41,1.42V64.1H362.69V31.17a1.41,1.41,0,0,0-1.41-1.42h-17a1.42,1.42,0,0,0-1.41,1.42v89.18a1.42,1.42,0,0,0,1.41,1.43h17a1.42,1.42,0,0,0,1.41-1.43V82.2h26.56l0,38.14a1.42,1.42,0,0,0,1.41,1.43H407.7a1.42,1.42,0,0,0,1.41-1.43Z" />
            <ellipse class="cls-1" cx="274.29" cy="42.87" rx="10.99" ry="11.1" />
            <path class="cls-1" d="M284.07,101.53V60.37a1.42,1.42,0,0,0-1.41-1.42h-17a1.63,1.63,0,0,0-1.48,1.59v59c0,1.73,1.08,2.25,2.48,2.25H282c1.68,0,2.09-.82,2.09-2.28Z" />
            <path class="cls-1" d="M473.88,59.08H457a1.42,1.42,0,0,0-1.41,1.43v43.73a19.11,19.11,0,0,1-10.39,3.14c-6.1,0-7.72-2.77-7.72-8.74V60.51A1.42,1.42,0,0,0,436,59.08H418.88a1.42,1.42,0,0,0-1.41,1.43v41c0,17.73,9.88,22.07,23.48,22.07,11.15,0,20.15-6.16,20.15-6.16a35.81,35.81,0,0,0,.62,3.63,1.49,1.49,0,0,0,1.24.77l10.92,0a1.42,1.42,0,0,0,1.41-1.42V60.51A1.42,1.42,0,0,0,473.88,59.08Z" />
            <path class="cls-1" d="M520.1,57.08A31.8,31.8,0,0,0,504,61.36V31.17a1.41,1.41,0,0,0-1.41-1.42H485.46a1.41,1.41,0,0,0-1.41,1.42v89.18a1.42,1.42,0,0,0,1.41,1.43h11.86a1.41,1.41,0,0,0,1.24-.76,27.79,27.79,0,0,0,.72-4.11s7,6.62,20.22,6.62c15.53,0,24.44-7.88,24.44-35.37S529.71,57.08,520.1,57.08Zm-6.67,50.24a20.28,20.28,0,0,1-9.84-2.84V76.24a22.54,22.54,0,0,1,8.74-2.84c6.09-.55,12,1.29,12,15.82C524.28,104.55,521.63,107.57,513.43,107.32Z" />
            <path class="cls-1" d="M333,58.94H320.26l0-16.89c0-.64-.33-1-1.07-1H301.75c-.68,0-1,.3-1,.95V59.49s-8.73,2.11-9.32,2.28a1.42,1.42,0,0,0-1,1.36v11a1.42,1.42,0,0,0,1.41,1.42h8.93v26.38c0,19.6,13.75,21.52,23,21.52a38.89,38.89,0,0,0,10.15-1.67,1.32,1.32,0,0,0,.8-1.28V108.42a1.44,1.44,0,0,0-1.41-1.42c-.74,0-2.65.3-4.61.3-6.28,0-8.41-2.92-8.41-6.7s0-25.07,0-25.07H333a1.42,1.42,0,0,0,1.41-1.42V60.36A1.41,1.41,0,0,0,333,58.94Z" />
            <path class="cls-2" d="M72.24,0A72.25,72.25,0,0,0,49.41,140.79c3.61.66,4.93-1.57,4.93-3.48,0-1.72-.06-6.26-.1-12.29-20.1,4.37-24.34-9.68-24.34-9.68-3.29-8.35-8-10.57-8-10.57-6.56-4.48.5-4.39.5-4.39,7.25.51,11.07,7.44,11.07,7.44,6.44,11,16.91,7.85,21,6,.66-4.67,2.52-7.85,4.59-9.66-16-1.82-32.91-8-32.91-35.7a27.92,27.92,0,0,1,7.44-19.39c-.74-1.83-3.22-9.17.71-19.12,0,0,6.07-1.94,19.87,7.41a68.48,68.48,0,0,1,36.17,0C104.13,28,110.18,30,110.18,30c3.94,9.95,1.46,17.29.72,19.12a27.88,27.88,0,0,1,7.43,19.39c0,27.75-16.89,33.86-33,35.65,2.59,2.23,4.9,6.64,4.9,13.38,0,9.66-.09,17.45-.09,19.82,0,1.93,1.3,4.18,5,3.47A72.25,72.25,0,0,0,72.24,0Z" />
        </g>
    </g>
</svg>