<svg width="207px" height="204px" viewBox="0 0 207 204" version="1.1" xmlns="http://www.w3.org/2000/svg" xmlns:xlink="http://www.w3.org/1999/xlink">
    <defs>
        <radialGradient cx="50%" cy="0%" fx="50%" fy="0%" r="100%" id="radialGradient-1">
            <stop stop-color="#555A75" offset="0%"></stop>
            <stop stop-color="#50546A" offset="100%"></stop>
        </radialGradient>
    </defs>
    <g id="Page-1" stroke="none" stroke-width="1" fill="none" fill-rule="evenodd">
        <g id="globe" transform="translate(-12.000000, -12.000000)" fill-rule="nonzero">
            <g id="world">
                <path d="M204.113501,109.664763 L215.113501,109.664763 L215.113501,118.664763 L204.113501,118.664763 L204.113501,109.664763 Z M201.559982,135.518201 L212.079334,138.734289 L209.447989,147.341032 L198.928636,144.124944 L201.559982,135.518201 Z M191.497249,159.465638 L200.616662,165.61676 L195.583926,173.078098 L186.464512,166.926976 L191.497249,159.465638 Z M174.822202,179.37793 L185.571401,192.652086 L178.577088,198.31597 L167.827888,185.041814 L174.822202,179.37793 Z M153.137633,193.523236 L157.079681,203.792621 L148.677457,207.017933 L144.73541,196.748548 L153.137633,193.523236 Z M128.131412,200.605608 L128.898733,211.578812 L119.920657,212.206621 L119.153335,201.233416 L128.131412,200.605608 Z M102.15221,199.998839 L99.6777486,210.71691 L90.9084181,208.69235 L93.3828797,197.97428 L102.15221,199.998839 Z M77.5106149,191.758973 L72.0106149,201.285252 L64.2163862,196.785252 L69.7163862,187.258973 L77.5106149,191.758973 Z M56.3976404,176.620842 L48.3527497,184.122824 L42.2147644,177.54064 L50.2596551,170.038658 L56.3976404,176.620842 Z M40.6899177,155.932541 L25.337934,163.420203 L21.3925937,155.331057 L36.7445774,147.843394 L40.6899177,155.932541 Z M31.7828901,131.53538 L20.9183183,133.25616 L19.5104081,124.366965 L30.3749799,122.646185 L31.7828901,131.53538 Z M30.3749799,105.68334 L14.2415333,103.128053 L15.6494435,94.2388583 L31.7828901,96.7941453 L30.3749799,105.68334 Z M36.7445774,80.4861315 L26.8578428,75.6640489 L30.8031832,67.5749025 L40.6899177,72.3969851 L36.7445774,80.4861315 Z M50.2596551,58.2908673 L42.2147644,50.7888853 L48.3527497,44.206702 L56.3976404,51.7086839 L50.2596551,58.2908673 Z M69.7163862,41.0705527 L61.1760628,26.2782786 L68.9702914,21.7782786 L77.5106149,36.5705527 L69.7163862,41.0705527 Z M93.3828797,30.3552461 L90.9084181,19.6371754 L99.6777486,17.6126159 L102.15221,28.3306866 L93.3828797,30.3552461 Z M119.153335,27.0961098 L119.920657,16.1229052 L128.898733,16.7507135 L128.131412,27.723918 L119.153335,27.0961098 Z M144.73541,31.5809777 L151.094116,15.0159812 L159.49634,18.2412928 L153.137633,34.8062892 L144.73541,31.5809777 Z M167.827888,43.2877118 L174.750413,34.7391062 L181.744726,40.4029897 L174.822202,48.9515953 L167.827888,43.2877118 Z M186.464512,61.4025494 L195.583926,55.2514274 L200.616662,62.7127656 L191.497249,68.8638875 L186.464512,61.4025494 Z M198.928636,84.2045822 L213.377938,79.7869874 L216.009283,88.3937302 L201.559982,92.811325 L198.928636,84.2045822 Z" id="circle_3" fill="#577E9A" transform="translate(115.125408, 113.611301) rotate(9.000000) translate(-115.125408, -113.611301) "></path>
                <path d="M205,111 L213,111 L213,116 L205,116 L205,111 Z M199.329786,144.651347 L206.693824,147.777196 L204.740169,152.379721 L197.37613,149.253872 L199.329786,144.651347 Z M181.13961,173.604076 L186.796465,179.260931 L183.260931,182.796465 L177.604076,177.13961 L181.13961,173.604076 Z M153.335067,193.389725 L156.33192,200.807196 L151.696001,202.680229 L148.699148,195.262758 L153.335067,193.389725 Z M120,201 L120,209 L115,209 L115,201 L120,201 Z M86.3486526,195.329786 L83.2228036,202.693824 L78.6202793,200.740169 L81.7461283,193.37613 L86.3486526,195.329786 Z M57.3959236,177.13961 L51.7390693,182.796465 L48.2035354,179.260931 L53.8603897,173.604076 L57.3959236,177.13961 Z M37.6102747,149.335067 L30.1928038,152.33192 L28.3197709,147.696001 L35.7372417,144.699148 L37.6102747,149.335067 Z M30,116 L22,116 L22,111 L30,111 L30,116 Z M35.6702144,82.3486526 L28.3061755,79.2228036 L30.2598312,74.6202793 L37.62387,77.7461283 L35.6702144,82.3486526 Z M53.8603897,53.3959236 L48.2035354,47.7390693 L51.7390693,44.2035354 L57.3959236,49.8603897 L53.8603897,53.3959236 Z M81.7461283,33.62387 L78.6202793,26.2598312 L83.2228036,24.3061755 L86.3486526,31.6702144 L81.7461283,33.62387 Z M115,26 L115,18 L120,18 L120,26 L115,26 Z M148.651347,31.6702144 L151.777196,24.3061755 L156.379721,26.2598312 L153.253872,33.62387 L148.651347,31.6702144 Z M177.604076,49.8603897 L183.260931,44.2035354 L186.796465,47.7390693 L181.13961,53.3959236 L177.604076,49.8603897 Z M197.389725,77.6649327 L204.807196,74.6680799 L206.680229,79.3039992 L199.262758,82.3008519 L197.389725,77.6649327 Z" id="circle_2" fill="#555A75" transform="translate(117.500000, 113.500000) rotate(4.000000) translate(-117.500000, -113.500000) "></path>
                <path d="M205,111 L213,111 L213,116 L205,116 L205,111 Z M199.329786,144.651347 L206.693824,147.777196 L204.740169,152.379721 L197.37613,149.253872 L199.329786,144.651347 Z M181.13961,173.604076 L186.796465,179.260931 L183.260931,182.796465 L177.604076,177.13961 L181.13961,173.604076 Z M153.335067,193.389725 L156.33192,200.807196 L151.696001,202.680229 L148.699148,195.262758 L153.335067,193.389725 Z M120,201 L120,215.662454 L115,215.662454 L115,201 L120,201 Z M86.3486526,195.329786 L83.2228036,202.693824 L78.6202793,200.740169 L81.7461283,193.37613 L86.3486526,195.329786 Z M57.3959236,177.13961 L44.9066829,189.628851 L41.371149,186.093317 L53.8603897,173.604076 L57.3959236,177.13961 Z M37.6102747,149.335067 L30.1928038,152.33192 L28.3197709,147.696001 L35.7372417,144.699148 L37.6102747,149.335067 Z M30,116 L12.3375464,116 L12.3375464,111 L30,111 L30,116 Z M35.6702144,82.3486526 L28.3061755,79.2228036 L30.2598312,74.6202793 L37.62387,77.7461283 L35.6702144,82.3486526 Z M53.8603897,53.3959236 L42.73347,42.2690039 L46.2690039,38.73347 L57.3959236,49.8603897 L53.8603897,53.3959236 Z M81.7461283,33.62387 L78.6202793,26.2598312 L83.2228036,24.3061755 L86.3486526,31.6702144 L81.7461283,33.62387 Z M115,26 L115,12.0024739 L120,12.0024739 L120,26 L115,26 Z M148.651347,31.6702144 L156.575333,13.0024739 L161.177857,14.9561295 L153.253872,33.62387 L148.651347,31.6702144 Z M177.604076,49.8603897 L183.260931,44.2035354 L186.796465,47.7390693 L181.13961,53.3959236 L177.604076,49.8603897 Z M197.389725,77.6649327 L204.807196,74.6680799 L206.680229,79.3039992 L199.262758,82.3008519 L197.389725,77.6649327 Z" id="circle_1" fill="#31988F"></path>
                <circle id="overlay" fill="url(#radialGradient-1)" cx="117" cy="113" r="89"></circle>
            </g>
            <path d="M69.8250592,44.5011115 L84.417596,53.9772814 L89.585509,65.4504473 L103.907013,65.4504473 L116.727029,69.4244859 L106.929943,59.469436 L95.9107152,61.6726164 L84.417596,44.5011115 L79.3191178,32.4051511 C76.3721718,33.7682727 74.1880026,34.8492839 72.76661,35.6481845 C71.3452175,36.4470852 69.3443307,37.7183054 66.7639496,39.4618452 L69.8250592,44.5011115 Z" id="shard_3" fill="#212A54"></path>
            <polygon id="shard_2" fill="#212A54" points="65.8583609 185.88645 73.8962623 165.040227 77.4555215 145.444545 88.5284066 136.483839 102.235341 136.483839 88.5284066 145.444545 95.0904822 158.799176 88.5284066 161.813516 81.5975642 169.224249 77.4555215 176.913204 73.8962623 190.859903"></polygon>
            <polygon id="shard_1" fill="#202A53" points="121.38534 201.964855 124.970461 186.860348 129.831729 194.05371 125.608776 197.806959 130.204489 201.113021"></polygon>
            <path d="M187.90266,59.1549232 L177.952873,59.3014023 L171.227597,69.2356041 L176.251791,77.902046 L174.487272,83.7753171 L177.952873,97.9187941 L174.487272,105.24916 L182.449078,100.393805 L177.952873,90.8099695 L182.449078,83.7753171 L179.494387,74.4120464 L182.449078,70.7697985 L195.358951,70.7697985 C194.030319,68.2972963 192.882184,66.3104335 191.914547,64.8092102 C190.94691,63.3079868 189.609615,61.4232245 187.90266,59.1549232 Z" id="shard_4" fill="#212A54"></path>
        </g>
    </g>
</svg>