<svg xmlns="http://www.w3.org/2000/svg" viewBox="0 0 287.86 76.25" width="110" height="29"><g id="layer1"><g id="g3019"><path id="path14" class="cls-1" d="M213.88,7.25a5.53,5.53,0,0,1,5.6-5.46h64.57a5.53,5.53,0,0,1,5.6,5.46V72.57a5.53,5.53,0,0,1-5.6,5.46H219.48a5.53,5.53,0,0,1-5.6-5.46V7.25Z" transform="translate(-1.79 -1.78)"></path><path id="path16" d="M1.79,65.65H33.41V55.27H13.23V15.66H1.79v50Z" transform="translate(-1.79 -1.78)"></path><path id="path18" d="M49.41,65.65V31.22H38V65.65H49.41ZM43.69,26.52c4,0,6.47-2.64,6.47-5.95s-2.48-5.95-6.4-5.95-6.47,2.57-6.47,5.95,2.48,5.95,6.32,5.95h0.07Z" transform="translate(-1.79 -1.78)"></path><path id="path20" d="M54.73,65.65H66.17V46.42a7.83,7.83,0,0,1,.38-2.79,6.26,6.26,0,0,1,5.87-4.18c4.14,0,5.8,3.16,5.8,7.78V65.65H89.66V45.91c0-10.58-5.65-15.5-13.18-15.5a11.4,11.4,0,0,0-10.39,5.8h0.08v-5H54.73c0.15,3.23,0,34.43,0,34.43h0Z" transform="translate(-1.79 -1.78)"></path><path id="path22" d="M105.8,15.66H94.36v50H105.8V54.49l2.86-3.6,9,14.76H131.7L116.65,44.28l13.18-14.54H116s-9.41,13-10.24,14.55V15.66h0Z" transform="translate(-1.79 -1.78)"></path><path id="path24" d="M162.31,51.29a28,28,0,0,0,.38-4.5c0-8.9-4.52-17.94-16.41-17.94-12.72,0-18.6,10.06-18.6,19.19,0,11.29,7.15,18.34,19.65,18.34a35.58,35.58,0,0,0,13.33-2.28l-1.51-7.56A31.13,31.13,0,0,1,149,58.09c-5.35,0-10-2.19-10.39-6.87l23.72,0.07h0Zm-23.79-7.74c0.3-2.94,2.26-7.27,7.15-7.27,5.19,0,6.4,4.63,6.4,7.27H138.52Z" transform="translate(-1.79 -1.78)"></path><path id="path26" d="M190.93,15.66V33h-0.15c-1.66-2.42-5.12-4-9.71-4-8.81,0-16.56,7.05-16.49,19.09,0,11.16,7,18.43,15.74,18.43,4.74,0,9.26-2.06,11.52-6h0.23l0.45,5.22h10.16c-0.15-2.42-.3-6.61-0.3-10.72V15.66H190.93Zm0,34.05a12.81,12.81,0,0,1-.23,2.5,6.74,6.74,0,0,1-6.7,5.36c-4.74,0-7.83-3.82-7.83-9.84,0-5.65,2.64-10.21,7.9-10.21a6.77,6.77,0,0,1,6.7,5.43,9.5,9.5,0,0,1,.15,2.06v4.7h0Z" transform="translate(-1.79 -1.78)"></path><path id="path28" class="cls-2" d="M236.85,65.61V31.18H225.41V65.61h11.44Zm-5.72-39.13c4,0,6.47-2.64,6.47-5.95s-2.48-5.95-6.4-5.95-6.47,2.57-6.47,5.95,2.48,5.95,6.32,5.95h0.07Z" transform="translate(-1.79 -1.78)"></path><path id="path30" class="cls-2" d="M243.18,65.61h11.44V46.38a7.84,7.84,0,0,1,.38-2.79,6.26,6.26,0,0,1,5.87-4.19c4.14,0,5.8,3.16,5.8,7.79V65.61h11.44V45.87c0-10.58-5.65-15.5-13.18-15.5a11.4,11.4,0,0,0-10.39,5.8h0.08v-5H243.18c0.15,3.23,0,34.43,0,34.43h0Z" transform="translate(-1.79 -1.78)"></path></g></g></svg>