<?xml version="1.0" encoding="utf-8"?>
<!-- Generator: Adobe Illustrator 21.1.0, SVG Export Plug-In . SVG Version: 6.00 Build 0)  -->
<svg version="1.1" id="Layer_1" xmlns="http://www.w3.org/2000/svg" xmlns:xlink="http://www.w3.org/1999/xlink" x="0px" y="0px"
	 viewBox="0 0 317 56" style="enable-background:new 0 0 317 56;" xml:space="preserve">
<style type="text/css">
	.st0{fill:#86C3E9;}
</style>
<title>logo-2</title>
<desc>Created with Sketch.</desc>
<g id="Intro">
	<g id="Desktop" transform="translate(-542.000000, -830.000000)">
		<g id="logo-2" transform="translate(542.000000, 830.000000)">
			<path id="Shape" class="st0" d="M33.7,13c1-0.1,1.9,0.4,2.5,1.1c0.6,0.7,0.9,1.6,0.9,2.6c0,0.3,0,0.6-0.1,0.9
				c-0.2,1.1-0.7,2-1.4,2.8c-0.9,0.8-2,1.5-3.2,1.9l-18.9,7.3l15.5,6.9c1,0.4,1.9,1.1,2.6,1.9c0.6,0.8,0.9,1.7,0.9,2.7
				c0,0.4-0.1,0.9-0.2,1.3c-0.4,1.8-1.4,2.7-3,2.7c-1-0.1-1.9-0.3-2.7-0.7L2.2,32.7C0.9,32.2,0,31,0,29.6c0-0.3,0.1-0.6,0.1-0.9
				c0.1-0.8,0.5-1.6,1-2.2c0.7-0.6,1.5-1.1,2.3-1.4l28-11.6C32.1,13.2,32.9,13,33.7,13z"/>
			<path id="Shape_1_" class="st0" d="M59.9,15.3C60,15,60,14.7,60,14.4c0-0.5-0.1-1.1-0.5-1.5c-0.4-0.5-0.9-0.9-1.5-1.3
				c-0.4-0.3-0.8-0.7-1.2-1.1c-0.2-0.3-0.3-0.7-0.2-1.1c0.1-0.5,0.4-0.9,0.8-1.1C58.2,8.1,58.9,8,59.6,8h15.9c0.6,0,1.3,0.1,1.8,0.4
				C77.7,8.6,78,9,78,9.5c0,0.3-0.1,0.5-0.2,0.8c-0.1,0.3-0.3,0.5-0.5,0.7c-0.2,0.2-0.4,0.3-0.6,0.5c-0.1,0.1-0.3,0.2-0.4,0.3
				c-0.5,0.3-1,0.7-1.5,1.2c-0.4,0.6-0.8,1.3-1,2l-5.5,20.1c-1.1,4.1-3,7.1-5.7,9.1c-2.7,2-6.2,3-10.5,3c-2.5,0.1-5-0.4-7.3-1.3
				c-1.8-0.7-3.4-1.9-4.5-3.5c-1-1.4-1.5-3.1-1.6-4.8c0-0.9,0.1-1.7,0.3-2.5c0.4-1.6,1.3-3,2.5-3.9c1.1-0.9,2.5-1.3,3.9-1.3
				c1.4-0.1,2.9,0.5,3.9,1.6c0.9,1.1,1.4,2.5,1.3,4c0,0.8-0.1,1.6-0.3,2.4c-0.4,1.5-1.3,2.8-2.5,3.6c0.6,0.4,1.3,0.6,2.1,0.6
				c0.8,0,1.6-0.5,2.1-1.2c0.7-1,1.2-2.2,1.5-3.4L59.9,15.3z"/>
			<path id="Shape_2_" class="st0" d="M109.3,20.3c2.4,2.1,3.8,5.3,3.7,8.6c0,1.3-0.2,2.7-0.5,4c-0.7,3.1-2.1,6.1-4.1,8.5
				c-2,2.4-4.5,4.4-7.3,5.7c-3,1.3-6.2,2-9.4,2c-5.3,0-9.3-1.1-11.8-3.3c-2.5-2.1-3.9-5.4-3.8-8.8c0-1.4,0.2-2.8,0.5-4.1
				c0.7-3.1,2.1-5.9,4.2-8.2c2.1-2.4,4.6-4.3,7.5-5.6c3-1.3,6.3-2,9.5-2C102.9,17,106.8,18.1,109.3,20.3z M95,24.5
				c-0.9,1.5-2,4.3-3.2,8.4s-1.8,7-1.8,8.7c-0.1,0.6,0.1,1.2,0.4,1.7c0.3,0.3,0.7,0.5,1.1,0.4c0.8,0.1,1.6-0.6,2.5-2.1
				c0.9-1.5,1.9-4.4,3.2-8.8c1.2-3.8,1.8-6.6,1.8-8.4c0.1-0.6-0.1-1.2-0.4-1.7c-0.3-0.3-0.7-0.5-1.1-0.5C96.7,22.3,95.9,23,95,24.5
				L95,24.5z"/>
			<path id="Shape_3_" class="st0" d="M153.8,40.2c-0.1,0.2-0.1,0.5-0.1,0.7c0,0.2,0.1,0.5,0.2,0.7c0.1,0.2,0.4,0.3,0.6,0.2
				c0.5,0,0.9-0.2,1.2-0.6c0.2-0.3,0.4-0.5,0.7-0.6c0.2,0,0.4,0.2,0.5,0.4c0.1,0.3,0.2,0.6,0.2,0.9c0,1.2-0.4,2.4-1.1,3.4
				c-0.9,1.2-2.1,2.1-3.5,2.7c-1.8,0.7-3.7,1.1-5.6,1c-2.3,0.1-4.5-0.5-6.3-1.8c-1.5-1.1-2.4-2.9-2.4-4.8c0-1.7,0.4-3.4,1.1-4.9
				l3.3-8.6c0.2-0.4,0.3-0.8,0.3-1.2c0-0.5-0.2-0.9-0.5-1.2c-0.3-0.3-0.8-0.5-1.2-0.4c-1,0-1.9,0.5-2.5,1.2c-0.8,0.8-1.4,1.9-1.7,3
				L133,42.3c-0.2,0.4-0.2,0.8-0.2,1.2c0,0.4,0.1,0.8,0.3,1.2c0.2,0.3,0.5,0.7,0.9,0.9c0.2,0.2,0.4,0.4,0.6,0.7
				c0.1,0.2,0.1,0.5,0.1,0.7c-0.2,0.5-0.6,1-1.1,1.1c-0.9,0.3-1.9,0.4-2.8,0.4h-13.8c-0.8,0.1-1.6-0.1-2.3-0.5
				c-0.4-0.3-0.7-0.8-0.5-1.3c0.2-0.6,0.7-1,1.3-1.2c0.6-0.3,1.1-0.7,1.5-1.1c0.5-0.6,0.8-1.3,1-2.1l5.4-17.2
				c0.1-0.3,0.1-0.6,0.1-0.9c0-0.4-0.1-0.7-0.3-1c-0.3-0.3-0.6-0.6-0.9-0.9c-0.3-0.2-0.6-0.5-0.9-0.9c-0.2-0.3-0.2-0.6-0.1-0.9
				c0.2-0.9,1.5-1.7,3.8-2.4c2.3-0.7,4.7-1,7.2-1c1.7-0.1,3.5,0.5,4.8,1.6c1.2,1.2,1.8,2.9,1.6,4.5c1.3-2,3.1-3.7,5.2-4.8
				c1.9-0.9,3.9-1.4,6-1.3c2.2-0.1,4.3,0.7,5.9,2.2c1.5,1.5,2.3,3.6,2.3,5.7c0,1.2-0.2,2.5-0.6,3.6L153.8,40.2z"/>
			<path id="Shape_4_" class="st0" d="M194.7,19.6c2.7,1.6,4.3,4.6,4.1,7.8c0,1.5-0.3,3-0.7,4.5l-2.5,8.3c0,0.2-0.1,0.4-0.1,0.6
				c-0.1,0.2,0,0.5,0.2,0.7c0.2,0.2,0.4,0.3,0.6,0.3c0.5,0,0.9-0.2,1.2-0.6c0.2-0.3,0.4-0.5,0.7-0.6c0.2,0,0.4,0.2,0.5,0.4
				c0.1,0.3,0.2,0.6,0.2,1c0,1.2-0.4,2.4-1.2,3.3c-0.9,1.2-2.1,2.1-3.5,2.8c-1.5,0.7-3.1,1.1-4.7,1.1c-1.8,0.1-3.7-0.3-5.3-1.1
				c-1.4-0.7-2.5-1.9-3-3.4c-1.2,1.4-2.6,2.6-4.3,3.3c-1.7,0.8-3.5,1.2-5.3,1.2c-1.9,0.1-3.7-0.4-5.3-1.2c-1.4-0.7-2.5-1.8-3.2-3.2
				c-0.7-1.3-1.1-2.7-1.1-4.1c0-0.6,0.1-1.3,0.2-1.9c0.5-2.6,2-4.8,4.2-6.3c2.3-1.4,5-2.2,7.7-2.1c3.3,0,6.6,0.5,9.8,1.6l1.5-3.9
				c0.4-1.3,0.7-2.6,0.8-3.9c0-0.8-0.3-1.6-1-2.2c-0.8-0.5-1.8-0.8-2.8-0.7c0.2,0.6,0.3,1.3,0.3,2c0,1.5-0.6,2.9-1.7,3.9
				c-1.3,1.2-3.1,1.7-4.8,1.6c-1.6,0.1-3.3-0.4-4.6-1.3c-1-0.7-1.7-1.9-1.7-3.2c0-2,1.1-3.7,3.4-5s5.7-2,10.3-2
				C188.2,17,191.9,17.9,194.7,19.6z M177.5,36.5c-0.7,0.8-1,1.8-1.1,2.8c0,0.6,0.1,1.1,0.5,1.6c0.3,0.4,0.8,0.6,1.3,0.6
				c0.6,0,1.2-0.2,1.7-0.6c0.6-0.5,1.1-1.1,1.3-1.9l1.3-3.5c-0.8-0.1-1.5-0.2-2.3-0.2C179.2,35.2,178.1,35.7,177.5,36.5z"/>
			<path id="Shape_5_" class="st0" d="M232.4,17.9c2,0.4,3.9,1.3,5.6,2.5c1.2,0.8,1.9,2.2,2,3.6c0,1.3-0.6,2.6-1.7,3.4
				c-1.3,0.9-3,1.4-4.6,1.3c-1.8,0-3.6-0.5-5.1-1.5c-1.3-0.8-2.1-2.2-2.1-3.7c0-0.5,0.1-1,0.2-1.5c-0.6-0.2-1.3-0.3-1.9-0.3
				c-0.9,0-1.8,0.2-2.5,0.7c-0.7,0.5-1,1.2-0.9,2c0,1.1,0.6,2,1.6,2.6c1.6,1,3.3,1.9,5.1,2.7c2,0.9,3.7,1.7,5,2.4
				c1.3,0.7,2.4,1.6,3.3,2.7c0.9,1.1,1.4,2.5,1.4,3.9c0,0.6-0.1,1.2-0.2,1.8c-0.6,2.7-2.4,4.8-5.3,6.3s-6.8,2.3-11.6,2.3
				c-5.4,0-9.6-0.7-12.8-2.1s-4.7-3.4-4.8-5.8c-0.1-1.4,0.5-2.9,1.6-3.8c1.2-0.9,2.7-1.4,4.2-1.3c1.9,0,3.7,0.6,5.2,1.8
				c1.4,1.2,2.2,2.9,2.1,4.7c0,0.5-0.1,1.1-0.2,1.6c0.9,0.2,1.8,0.3,2.8,0.4c0.9,0,1.9-0.3,2.6-0.9c0.7-0.6,1.1-1.4,1-2.3
				c-0.1-0.9-0.6-1.8-1.4-2.3c-1.3-0.9-2.7-1.7-4.2-2.3c-1.5-0.7-3-1.5-4.5-2.3c-1.2-0.7-2.2-1.7-3-2.7c-0.8-1.1-1.3-2.5-1.2-3.9
				c-0.1-3.1,1.5-6,4.1-7.7c2.8-1.9,6.7-2.9,11.7-2.9C226.7,17,229.6,17.2,232.4,17.9z"/>
			<path id="Shape_6_" class="st0" d="M256.8,53.4c-0.4,0.8-0.9,1.4-1.5,2c-0.5,0.4-1,0.6-1.6,0.6c-0.7,0-1.5-0.3-2-0.8
				c-0.5-0.5-0.7-1.2-0.7-2c0-0.7,0.2-1.3,0.5-1.9l27.6-48.7c1-1.7,2.1-2.6,3.3-2.6c0.7,0,1.4,0.3,1.9,0.9c0.5,0.6,0.7,1.3,0.7,2
				c0,0.7-0.2,1.4-0.5,2L256.8,53.4z"/>
			<path id="Shape_7_" class="st0" d="M317,28.4c0,0.3-0.1,0.6-0.1,0.9c-0.1,0.8-0.5,1.6-1,2.1c-0.7,0.6-1.5,1.1-2.3,1.4l-28,11.6
				c-0.7,0.3-1.5,0.5-2.3,0.5c-1,0.1-1.9-0.4-2.5-1.1c-0.6-0.7-0.9-1.6-0.9-2.6c0-0.3,0-0.6,0.1-0.9c0.2-1.1,0.7-2,1.4-2.8
				c0.9-0.8,2-1.5,3.2-1.9l18.9-7.3l-15.5-6.9c-1-0.4-1.9-1.1-2.6-1.9c-0.6-0.8-0.9-1.7-0.9-2.7c0-0.4,0.1-0.9,0.2-1.3
				c0.4-1.8,1.4-2.7,3-2.7c1,0.1,1.9,0.3,2.7,0.7l24.3,11.5C316.1,25.8,317,27,317,28.4z"/>
		</g>
	</g>
</g>
</svg>
