
<svg width="200px" height="43px" viewBox="0 0 1147 234" version="1.1" xmlns="http://www.w3.org/2000/svg" xmlns:xlink="http://www.w3.org/1999/xlink">
    <g id="Page-1" stroke="none" stroke-width="1" fill="none" fill-rule="evenodd">
        <g id="quad" transform="translate(-2.000000, 0.000000)" fill-rule="nonzero">
            <g id="copter" transform="translate(10.000000, 0.000000)">
                <polygon id="frame" fill="#5D5D5D" points="118.217913 233.44187 108 219.56882 118.217913 207.345967 141.450519 207.345967 141.450519 168.767487 201.798284 168.767487 201.798284 207.345967 473.11142 207.345967 473.11142 106.072707 491.529635 106.072707 499.394197 90.7616746 553.552048 90.7616746 553.552048 72 573.373533 72 573.373533 90.7616746 630.393794 90.7616746 638.371873 106.072707 656.843806 106.072707 656.843806 207.345967 927.095875 207.345967 927.095875 168.767487 985.578063 168.767487 985.578063 207.345967 1013.94813 207.345967 1021.54664 219.56882 1013.94813 233.44187"></polygon>
                <path d="M781,153.25 L1131,153.25" id="right-prop" stroke="#50E3C2" stroke-width="15" stroke-linecap="round"></path>
                <path d="M0,153.25 L350,153.25" id="left-prop" stroke="#50E3C2" stroke-width="15" stroke-linecap="round"></path>
                <path d="M563.25,0.5 L563.25,69.5" id="antanna" stroke="#ACACAC" stroke-width="5" stroke-linecap="square"></path>
            </g>
        </g>
    </g>
	<style>
		@keyframes prop-rotate{
			0%{
				transform: scale(1, 1);
			}
			50% {
				transform: scale(.7, 1);
			}
			100% {
				transform: scale(1, 1);
			}
		}

		#left-prop{
			animation: prop-rotate .1s infinite;
			transform-origin: 200px 50%;
		}

		#right-prop{

			animation: prop-rotate .1s infinite;
			transform-origin: 976px 50%;
		}
	</style>
</svg>
