<svg width="38px" height="17px" viewBox="0 0 38 17" version="1.1" xmlns="http://www.w3.org/2000/svg" xmlns:xlink="http://www.w3.org/1999/xlink">
    <g id="Page-1" stroke="none" stroke-width="1" fill="none" fill-rule="evenodd">
        <g id="camera-(2)" fill="#FFFFFF" fill-rule="nonzero">
            <path d="M37.0536313,2.94368471 L31.7182028,2.94368471 L31.7182028,2.90688866 C31.7182028,2.14631412 31.2243997,1.49929222 30.5407289,1.26828656 L30.5407289,0.551940884 C30.5407289,0.247122332 30.2936066,0 29.988788,0 C29.6839695,0 29.4368471,0.247122332 29.4368471,0.551940884 L29.4368471,1.26828656 C28.7531764,1.49921862 28.2593733,2.14624053 28.2593733,2.90688866 L28.2593733,2.94368471 L22.9239447,2.94368471 C22.6191262,2.94368471 22.3720038,3.19080705 22.3720038,3.4956256 C22.3720038,3.80044415 22.6191262,4.04756648 22.9239447,4.04756648 L29.4368471,4.04756648 L29.4368471,4.80070822 C28.7531764,5.03164028 28.2593733,5.67866218 28.2593733,6.43931031 L28.2593733,7.06484331 L26.941412,7.06484331 C26.6931122,6.05228936 25.778215,5.29863249 24.6901555,5.29863249 L12.9154167,5.29863249 C11.8273572,5.29863249 10.9125336,6.05228936 10.6641602,7.06484331 L9.34619897,7.06484331 L9.34619897,6.43931031 C9.34619897,5.67873577 8.85239586,5.03171387 8.16872508,4.80070822 L8.16872508,4.04756648 L14.6816275,4.04756648 C14.9864461,4.04756648 15.2335684,3.80044415 15.2335684,3.4956256 C15.2335684,3.19080705 14.9864461,2.94368471 14.6816275,2.94368471 L9.34619897,2.94368471 L9.34619897,2.90688866 C9.34619897,2.14631412 8.85239586,1.49929222 8.16872508,1.26828656 L8.16872508,0.551940884 C8.16872508,0.247122332 7.92160275,0 7.6167842,0 C7.31196565,0 7.06484331,0.247122332 7.06484331,0.551940884 L7.06484331,1.26828656 C6.38117254,1.49921862 5.88736943,2.14624053 5.88736943,2.90688866 L5.88736943,2.94368471 L0.551940884,2.94368471 C0.247122332,2.94368471 0,3.19080705 0,3.4956256 C0,3.80044415 0.247122332,4.04756648 0.551940884,4.04756648 L7.06484331,4.04756648 L7.06484331,4.80070822 C6.38117254,5.03164028 5.88736943,5.67866218 5.88736943,6.43931031 L5.88736943,7.6167842 C5.88736943,8.57039086 6.66317753,9.34619897 7.6167842,9.34619897 C8.37743233,9.34619897 9.02445423,8.85239586 9.25538629,8.16872508 L10.6642338,8.16872508 C10.9120185,9.17907127 11.8234568,9.93147708 12.9083518,9.93478873 C12.7867041,10.1328987 12.6930949,10.3517617 12.6342948,10.5870357 L11.3070609,15.895971 L10.5604689,15.895971 C10.2556504,15.895971 10.008528,16.1430934 10.008528,16.4479119 C10.008528,16.7527305 10.2556504,16.9998528 10.5604689,16.9998528 L11.7363238,16.9998528 C11.7369861,16.9998528 11.737722,17 11.7383843,17 C11.7388995,17 11.739341,16.9998528 11.7398562,16.9998528 L12.9154167,16.9998528 C13.2202352,16.9998528 13.4673576,16.7527305 13.4673576,16.4479119 C13.4673576,16.1430934 13.2202352,15.895971 12.9154167,15.895971 L12.4448687,15.895971 L13.7051337,10.8547638 C13.8405432,10.313273 14.3249265,9.9350095 14.8831963,9.9350095 L22.7223759,9.9350095 C23.2805721,9.9350095 23.765029,10.313273 23.9004385,10.8547638 L25.1607035,15.895971 L24.6901555,15.895971 C24.385337,15.895971 24.1382147,16.1430934 24.1382147,16.4479119 C24.1382147,16.7527305 24.385337,16.9998528 24.6901555,16.9998528 L25.865716,16.9998528 C25.8662312,16.9998528 25.8666727,17 25.8671879,17 C25.8678502,17 25.8685861,16.9998528 25.8692485,16.9998528 L27.0451033,16.9998528 C27.3499219,16.9998528 27.5970442,16.7527305 27.5970442,16.4479119 C27.5970442,16.1430934 27.3499219,15.895971 27.0451033,15.895971 L26.2985849,15.895971 L24.971351,10.5870357 C24.9125509,10.3517617 24.8189417,10.1329723 24.697294,9.93478873 C25.782189,9.93147708 26.6936274,9.17907127 26.941412,8.16872508 L28.3502595,8.16872508 C28.5811916,8.85239586 29.2282135,9.34619897 29.9888616,9.34619897 C30.9424683,9.34619897 31.7182764,8.57039086 31.7182764,7.6167842 L31.7182764,6.43931031 C31.7182764,5.67873577 31.2244733,5.03171387 30.5408025,4.80070822 L30.5408025,4.04756648 L37.0537049,4.04756648 C37.3585235,4.04756648 37.6056458,3.80044415 37.6056458,3.4956256 C37.6056458,3.19080705 37.3584499,2.94368471 37.0536313,2.94368471 Z M6.9912512,2.90688866 C6.9912512,2.5619624 7.27185794,2.28135565 7.6167842,2.28135565 C7.96171045,2.28135565 8.2423172,2.5619624 8.2423172,2.90688866 L8.2423172,2.94368471 L6.9912512,2.94368471 L6.9912512,2.90688866 Z M7.6167842,8.2423172 C7.27185794,8.2423172 6.9912512,7.96171045 6.9912512,7.6167842 L6.9912512,6.43931031 C6.9912512,6.09438406 7.27185794,5.81377731 7.6167842,5.81377731 C7.96171045,5.81377731 8.2423172,6.09438406 8.2423172,6.43931031 L8.2423172,7.6167842 C8.2423172,7.96171045 7.96171045,8.2423172 7.6167842,8.2423172 Z M24.6901555,8.83105414 L12.9154167,8.83105414 C12.2458756,8.83105414 11.7011467,8.28632529 11.7011467,7.6167842 C11.7011467,6.94724311 12.2458756,6.40251425 12.9154167,6.40251425 L24.6901555,6.40251425 C25.3596966,6.40251425 25.9044255,6.94724311 25.9044255,7.6167842 C25.9044255,8.28632529 25.3596966,8.83105414 24.6901555,8.83105414 Z M30.614321,7.6167842 C30.614321,7.96171045 30.3337143,8.2423172 29.988788,8.2423172 C29.6438618,8.2423172 29.363255,7.96171045 29.363255,7.6167842 L29.363255,6.43931031 C29.363255,6.09438406 29.6438618,5.81377731 29.988788,5.81377731 C30.3337143,5.81377731 30.614321,6.09438406 30.614321,6.43931031 L30.614321,7.6167842 Z M29.363255,2.90688866 C29.363255,2.5619624 29.6438618,2.28135565 29.988788,2.28135565 C30.3337143,2.28135565 30.614321,2.5619624 30.614321,2.90688866 L30.614321,2.94368471 L29.363255,2.94368471 L29.363255,2.90688866 Z" id="Shape"></path>
        </g>
    </g>
</svg>