<?xml version="1.0" encoding="UTF-8"?>
<svg width="317px" height="56px" viewBox="0 0 317 56" version="1.1" xmlns="http://www.w3.org/2000/svg" xmlns:xlink="http://www.w3.org/1999/xlink">
    <!-- Generator: Sketch 51.1 (57501) - http://www.bohemiancoding.com/sketch -->
    <title>logo-2</title>
    <desc>Created with Sketch.</desc>
    <defs></defs>
    <g id="Intro" stroke="none" stroke-width="1" fill="none" fill-rule="evenodd" opacity="0.134375">
        <g id="Desktop" transform="translate(-542.000000, -830.000000)" fill="#86C3E9" fill-rule="nonzero">
            <g id="logo-2" transform="translate(542.000000, 830.000000)">
                <path d="M33.6696195,13.0043712 C34.6196527,12.9528402 35.5367868,13.3593159 36.1355635,14.0972826 C36.7118439,14.8332922 37.0163494,15.7450523 36.9977816,16.6789633 C37.0071318,16.9671206 36.986908,17.2554765 36.9374264,17.5395235 C36.7453089,18.5974638 36.2513174,19.5775707 35.5147664,20.362161 C34.5702668,21.1834933 33.4792247,21.8199271 32.2986926,22.2381823 L13.4419813,29.5185217 L28.9101752,36.4030034 C29.9268034,36.8164116 30.8182069,37.4866444 31.4968297,38.3478695 C32.0735125,39.1264927 32.3765945,40.0733152 32.3590479,41.041423 C32.3609167,41.4809619 32.2999472,41.9185189 32.1779821,42.3408689 C31.7411249,44.113623 30.7294555,45 29.1429741,45 C28.190364,44.9385538 27.2603256,44.6837975 26.4097425,44.2513126 L2.19865633,32.7198057 C0.89854417,32.2154833 0.0307963177,30.9791976 0,29.5873665 C0.0113876936,29.2972136 0.0518258364,29.0089251 0.120710544,28.7268063 C0.226762982,27.9230368 0.579103755,27.1716196 1.1295058,26.5754058 C1.79747247,25.949123 2.58678789,25.4659014 3.44887268,25.1554814 L31.4106079,13.5551297 C32.1207224,13.2271266 32.8879646,13.040069 33.6696195,13.0043712 Z" id="Shape"></path>
                <path d="M59.9051003,15.3462159 C59.9887837,15.0461552 60.0271368,14.7345258 60.0188026,14.422354 C60.0403614,13.8777617 59.8701003,13.3435791 59.5396288,12.9189789 C59.1010181,12.4273088 58.6012362,11.9980232 58.0533781,11.6423698 C57.6104513,11.3217332 57.2068299,10.9466414 56.851383,10.5253368 C56.6096837,10.2167459 56.5362531,9.80225924 56.6564648,9.42510134 C56.7271543,8.93874084 57.0335906,8.52361025 57.4686237,8.32486587 C58.160916,8.0823813 58.8905564,7.97418312 59.6208447,8.00571359 L75.5391586,8.00571359 C76.1695406,7.96917337 76.7978417,8.10840387 77.3583945,8.40885331 C77.7416739,8.60701391 77.9882968,9.00732843 78,9.45029757 C77.9857417,9.71054797 77.9280392,9.96628366 77.8294466,10.2061845 C77.71627,10.4766576 77.5535549,10.7219294 77.3502729,10.9284765 C77.1846518,11.1080827 76.996118,11.2634916 76.7898833,11.3904074 C76.6575661,11.4602802 76.5346923,11.5478152 76.4244118,11.6507685 C75.8830865,11.954357 75.3922809,12.3456562 74.9706474,12.8097952 C74.5206656,13.3895917 74.1965895,14.062727 74.0204215,14.7835 L68.5302275,34.8816945 C67.4094483,38.9746825 65.5144109,42.0178274 62.8451154,44.0111293 C60.1758199,46.0044312 56.6835368,46.9982826 52.368266,46.9926834 C49.8724803,47.0633998 47.3879586,46.6209079 45.0588361,45.6908781 C43.2667968,44.9826472 41.704421,43.7657829 40.5513544,42.1802031 C39.5577226,40.7974372 39.0145281,39.1240071 39.0001309,37.4013177 C38.9956193,36.5494035 39.1077262,35.7011166 39.3331161,34.8816945 C39.7096208,33.3149145 40.5885473,31.9263682 41.8264438,30.9426836 C42.9668282,30.0657598 44.35246,29.5969658 45.7735359,29.6072833 C47.2229086,29.5060841 48.640368,30.0788669 49.6394122,31.1694497 C50.5603064,32.2785112 51.0418705,33.7065049 50.9875959,35.1672518 C50.9870718,35.9912229 50.8749887,36.81106 50.6546108,37.6028876 C50.301797,39.0952705 49.3980927,40.385544 48.1369182,41.1975501 C48.7596622,41.5910662 49.4782656,41.7921475 50.2079234,41.7770634 C51.0488942,41.7443048 51.8216912,41.2898752 52.2789285,40.5592455 C52.9773503,39.5231487 53.4891005,38.3651373 53.789544,37.1409567 L59.9051003,15.3462159 Z" id="Shape"></path>
                <path d="M109.279027,20.2753465 C111.728015,22.3889839 113.098333,25.5483421 112.994497,28.8416092 C112.977701,30.1817658 112.823774,31.5163404 112.535282,32.8231116 C111.856637,35.9654384 110.453162,38.8922537 108.44409,41.3549025 C106.446356,43.7948895 103.932666,45.7290129 101.096644,47.0082912 C98.1286267,48.35065 94.9188676,49.0291136 91.6785539,48.9990424 C86.340523,48.9990424 82.3940538,47.8988148 79.8391463,45.6983596 C77.3063505,43.5506839 75.8891551,40.3064206 76.0067852,36.9252656 C76.0224522,35.5451981 76.1763424,34.1705021 76.4660006,32.8231116 C77.1774463,29.7633043 78.6116643,26.9328617 80.6406859,24.5843318 C82.7131081,22.1683748 85.2797871,20.2579717 88.1551195,18.9912689 C91.1665017,17.6563188 94.4127992,16.9785439 97.6901008,17.0005177 C102.922373,17.006263 106.785349,18.0978726 109.279027,20.2753465 Z M94.9932541,24.524006 C94.091522,26.0120422 93.0255857,28.8157553 91.7954451,32.9351452 C90.5653045,37.0545352 89.9502342,39.9473006 89.9502342,41.6134416 C89.8885327,42.2183999 90.0300158,42.8268776 90.351004,43.3370357 C90.6362241,43.6417655 91.0347202,43.8050359 91.4447715,43.7851702 C92.2518774,43.8656046 93.0868144,43.1531857 93.9495827,41.6479135 C94.812351,40.1426413 95.892203,37.2211493 97.1891385,32.8834374 C98.3803154,29.0398226 98.9759039,26.2447274 98.9759039,24.4981521 C99.0317016,23.8969811 98.9000687,23.2931254 98.6001822,22.774558 C98.3366808,22.4509063 97.9402988,22.2751067 97.5314627,22.3005696 C96.7466219,22.3005696 95.9005523,23.0445877 94.9932541,24.532624 L94.9932541,24.524006 Z" id="Shape"></path>
                <path d="M153.751069,40.2406446 C153.656941,40.4668559 153.615181,40.7109169 153.628833,40.95505 C153.614127,41.1911556 153.688793,41.4242447 153.838381,41.6092043 C153.98278,41.7724489 154.195216,41.8612947 154.414638,41.8502085 C154.901408,41.8475148 155.358098,41.6176201 155.645732,41.2304834 C155.808382,40.9611745 156.048433,40.7454975 156.335494,40.6107582 C156.561204,40.6300564 156.751825,40.7838059 156.815708,40.9980864 C156.943738,41.2883746 157.006297,41.6026081 156.999063,41.9190669 C157.017891,43.1339529 156.614252,44.3185798 155.85528,45.2759114 C154.944704,46.448028 153.741393,47.3673634 152.362814,47.9441725 C150.602574,48.6789792 148.703252,49.0340851 146.79233,48.985655 C144.535708,49.1057858 142.304374,48.468638 140.462234,47.1781233 C138.931468,46.0294347 138.038667,44.2372758 138.052432,42.3408242 C138.100701,40.644959 138.467805,38.9726512 139.135097,37.4088449 L142.444209,28.853195 C142.619392,28.4580164 142.722826,28.0355831 142.7498,27.6051374 C142.770728,27.145025 142.581753,26.6998118 142.234661,26.391509 C141.896111,26.0948111 141.456463,25.9349718 141.003567,25.9439297 C140.025531,25.9855183 139.108746,26.4249413 138.471528,27.1575581 C137.649923,28.0003445 137.050357,29.0287884 136.725295,30.1528963 L132.988356,42.2719659 C132.833435,42.6706841 132.750689,43.0931093 132.743883,43.5200235 C132.725763,43.9287438 132.832197,44.3334511 133.049474,44.6820081 C133.298978,45.0248591 133.592456,45.3344252 133.922591,45.6029886 C134.156497,45.7890334 134.359728,46.0097061 134.525041,46.2571429 C134.649836,46.4751834 134.672148,46.7359831 134.586159,46.9715483 C134.407518,47.5047386 133.98324,47.922997 133.442377,48.0991038 C132.527675,48.3792542 131.570137,48.4987051 130.613479,48.4520028 L116.818236,48.4520028 C116.029498,48.5147469 115.240215,48.3374997 114.556864,47.9441725 C114.112184,47.6547882 113.904792,47.1176739 114.041726,46.6100419 C114.284724,46.048673 114.738297,45.6015355 115.307745,45.3619843 C115.873703,45.0752374 116.384805,44.693709 116.818236,44.2344289 C117.308687,43.6218069 117.657342,42.9108868 117.839783,42.1514638 L123.200719,24.9885201 C123.296213,24.7117889 123.337689,24.4197348 123.322955,24.1277907 C123.345231,23.772118 123.250289,23.4188744 123.052289,23.1207373 C122.787596,22.8089809 122.495416,22.520946 122.179172,22.260008 C121.845675,22.0182532 121.55129,21.7280449 121.306056,21.3992786 C121.14058,21.1092938 121.118084,20.7607999 121.244938,20.4524763 C121.48359,19.5401031 122.749609,18.7396248 125.042995,18.0510413 C127.366224,17.3527845 129.782491,17.0017244 132.211282,17.0095588 C133.953876,16.9166311 135.663459,17.5041768 136.969768,18.6449446 C138.17353,19.8413255 138.750199,21.5182036 138.532647,23.1895957 C139.835143,21.1658215 141.637735,19.5013482 143.771346,18.3522966 C145.648294,17.4555797 147.710194,16.9989707 149.795851,17.0181661 C151.995519,16.9222916 154.139707,17.7149544 155.733044,19.213026 C157.256953,20.7202745 158.076186,22.7845145 157.994416,24.9110544 C157.99362,26.1431073 157.790162,27.3668804 157.391965,28.5347251 L153.751069,40.2406446 Z" id="Shape"></path>
                <path d="M194.681579,19.5550954 C197.403295,21.1791621 198.999761,24.1826165 198.82554,27.3511884 C198.792558,28.8801264 198.549411,30.3972204 198.102959,31.8596673 L195.639217,40.1615471 C195.594781,40.3589265 195.574319,40.5609617 195.578277,40.763259 C195.524446,40.9994857 195.582562,41.2473745 195.735739,41.4349064 C195.888916,41.6224383 196.11998,41.7285857 196.361799,41.7225098 C196.847155,41.7197807 197.302518,41.4868633 197.589316,41.0946366 C197.751494,40.8217869 197.990848,40.6032741 198.277075,40.4667633 C198.515631,40.4928203 198.716712,40.6566873 198.790717,40.8853455 C198.934064,41.1844082 199.005615,41.5129027 198.999656,41.8445963 C198.993432,43.0570022 198.558524,44.2279793 197.772138,45.1496514 C196.838784,46.3268436 195.647184,47.2727766 194.289818,47.9140379 C192.815281,48.6435454 191.189635,49.0140402 189.545158,48.9953752 C187.69786,49.0476628 185.864933,48.6559399 184.199797,47.8529946 C182.789481,47.1596081 181.700984,45.9474355 181.161473,44.4694554 C180.000365,45.8817451 178.544224,47.0218293 176.895631,47.8093923 C175.244533,48.5936573 173.438515,48.9960016 171.61121,48.9866547 C169.752841,49.0509878 167.910014,48.6270853 166.265849,47.7570695 C164.912527,47.0225635 163.797703,45.9149405 163.053409,44.5653804 C162.361567,43.3010692 161.999258,41.8823861 162.000007,40.4406019 C161.999224,39.8140186 162.060464,39.1889012 162.182829,38.574423 C162.684072,36.0116525 164.189033,33.7566914 166.361613,32.3131313 C168.650562,30.865776 171.316798,30.1313264 174.022717,30.2027795 C177.349198,30.2017881 180.654837,30.7286379 183.816741,31.7637422 L185.322845,27.8308138 C185.763865,26.5713221 186.027573,25.2564297 186.106367,23.9240468 C186.126804,23.0958357 185.775338,22.3021038 185.148729,21.7613723 C184.3361,21.2164332 183.363954,20.9614678 182.38899,21.0375739 C182.614075,21.6727156 182.723186,22.3432551 182.711105,23.0171188 C182.721488,24.4823557 182.110827,25.8832196 181.030886,26.871563 C179.70571,28.0267004 177.978135,28.6097986 176.225284,28.4935689 C174.591853,28.5925797 172.972698,28.1379611 171.628622,27.2029406 C170.588018,26.4632739 169.97114,25.2632146 169.97452,23.9850901 C169.97452,21.9793838 171.094666,20.3137756 173.334959,18.9882653 C175.575251,17.6627551 178.999532,17 183.607802,17 C188.233484,17 191.924743,17.8516985 194.681579,19.5550954 Z M177.487625,36.5251145 C176.817923,37.3045729 176.444815,38.296056 176.434223,39.3243828 C176.410176,39.8803495 176.56924,40.4288199 176.886925,40.8853455 C177.189952,41.2878666 177.672775,41.5133457 178.175383,41.4870574 C178.805738,41.4586251 179.412739,41.2397368 179.916543,40.8591841 C180.56525,40.3976107 181.040444,39.7312181 181.265942,38.9668438 L182.528283,35.4176158 C181.774682,35.2907163 181.011523,35.229444 180.247364,35.2344861 C179.174455,35.19845 178.148928,35.6780512 177.487625,36.5251145 Z" id="Shape"></path>
                <path d="M232.429074,17.8782719 C234.461991,18.2871544 236.376434,19.1351068 238.033212,20.3604779 C239.217417,21.1945354 239.942313,22.5181866 239.997279,23.9468377 C240.046416,25.2848986 239.427512,26.5625016 238.338734,27.3705701 C236.99944,28.3085104 235.372614,28.7677263 233.729723,28.6715885 C231.914058,28.716247 230.132213,28.18489 228.649337,27.1565869 C227.356646,26.3422066 226.574172,24.9398828 226.57179,23.4332778 C226.570646,22.9299448 226.653202,22.4297959 226.816207,21.9525135 C226.189279,21.7715443 225.540469,21.6736696 224.887057,21.6614963 C223.998649,21.6291674 223.123246,21.8782745 222.39051,22.3719207 C221.733327,22.8292432 221.37679,23.5970545 221.456487,24.3833636 C221.4938,25.4453954 222.083562,26.4145909 223.019011,26.9511629 C224.634173,27.9626133 226.32689,28.8497365 228.081939,29.6045556 C230.089652,30.4719011 231.745288,31.2679189 233.048847,31.992609 C234.318881,32.6951116 235.441507,33.6274357 236.357208,34.7401543 C237.258901,35.843178 237.737676,37.2212661 237.710232,38.63465 C237.673012,39.2303056 237.591321,39.8224855 237.465815,40.4064315 C236.825675,43.0655304 235.05074,45.1625665 232.141011,46.6975399 C229.231282,48.2325133 225.375891,49 220.574839,49 C215.19184,49 210.926177,48.2924286 207.777851,46.8772859 C204.629524,45.4621431 203.040812,43.5248812 203.011715,41.0655 C202.90913,39.6205732 203.484444,38.2086972 204.574239,37.2309196 C205.753874,36.3199846 207.229594,35.8579157 208.729332,35.9299013 C210.619117,35.8883897 212.456337,36.5418044 213.879552,37.7615982 C215.275646,38.9190746 216.061995,40.6342643 216.018203,42.4264337 C216.014731,42.961978 215.953283,43.4956474 215.83489,44.0184693 C216.739191,44.2458478 217.668501,44.3637038 218.602042,44.3694018 C219.551706,44.4033541 220.481844,44.0993411 221.220799,43.5134687 C221.91065,42.9455058 222.288767,42.093077 222.242113,41.2110086 C222.177901,40.2620499 221.664266,39.3973088 220.854173,38.8743112 C219.523554,37.9722716 218.112398,37.1901816 216.637975,36.5376138 C215.099028,35.8591554 213.606167,35.0843639 212.168632,34.2180351 C211.006639,33.4938015 209.993912,32.5617554 209.18325,31.4704898 C208.352276,30.3379627 207.920203,28.9708148 207.952435,27.5759941 C207.882874,24.482079 209.443111,21.5711085 212.08134,19.872596 C214.833943,17.9610121 218.7388,17.0052201 223.795909,17.0052201 C226.698892,16.95645 229.597349,17.2495642 232.429074,17.8782719 Z" id="Shape"></path>
                <path d="M256.835051,53.3843461 C256.452302,54.1371922 255.935176,54.813042 255.309397,55.3782739 C254.857678,55.7626852 254.288894,55.9807689 253.697058,55.9964785 C252.954548,56.0356773 252.232226,55.7460976 251.720643,55.2041317 C251.238084,54.6653706 250.980451,53.9607377 251.001158,53.2363253 C251.010596,52.5561165 251.195793,51.8900372 251.538605,51.3033473 L279.147743,2.61319967 C280.107055,0.871778084 281.202174,0.00106728884 282.4331,0.00106728884 C283.161361,-0.0210395381 283.857764,0.301313258 284.314162,0.871778084 C284.774773,1.43487859 285.017899,2.14586805 284.998973,2.87441291 C284.995977,3.57750766 284.81075,4.26769982 284.461526,4.87704774 L256.835051,53.3843461 Z" id="Shape"></path>
                <path d="M317,28.4344929 C316.988162,28.7243693 316.94774,29.0123788 316.879318,29.2943533 C316.773291,30.0974691 316.421033,30.8482752 315.870761,31.4440041 C315.201545,32.0638001 314.412483,32.540736 313.551942,32.8455764 L285.588194,44.4536909 C284.877645,44.7784612 284.110609,44.9624401 283.329716,44.9954029 C282.379645,45.0483222 281.462103,44.6419005 280.864355,43.9033803 C280.288211,43.1679693 279.983777,42.2569507 280.002341,41.3237993 C279.992688,41.0358707 280.012909,40.7477181 280.062682,40.4639389 C280.255147,39.402693 280.752231,38.4199693 281.493626,37.6349985 C282.437782,36.8141666 283.528599,36.1782309 284.70894,35.7605029 L303.561195,28.4688873 L288.096656,21.5900047 C287.079873,21.1776272 286.188515,20.5078154 285.510613,19.6467204 C284.933484,18.8690279 284.630408,17.9227725 284.648599,16.9553575 C284.646964,16.5161918 284.707915,16.0790236 284.829622,15.6569684 C285.266376,13.8856561 286.277806,13 287.863912,13 C288.816177,13.0621105 289.745854,13.3166208 290.596498,13.7480785 L314.862204,25.2702069 C316.149797,25.7978296 316.993052,27.045984 317,28.4344929 Z" id="Shape"></path>
            </g>
        </g>
    </g>
</svg>